<?xml version="1.0" encoding="utf-8"?>
<!-- Generator: Adobe Illustrator 20.1.0, SVG Export Plug-In . SVG Version: 6.00 Build 0)  -->
<svg version="1.1" id="Layer_1" xmlns="http://www.w3.org/2000/svg" xmlns:xlink="http://www.w3.org/1999/xlink" x="0px" y="0px"
	 viewBox="0 0 181.1 169.1" style="enable-background:new 0 0 181.1 169.1;" xml:space="preserve">
<g id="container2">
	<g>
		<path style="fill:#FFFFFF;" d="M152.8,0.7h-6.3L141.1,2c-16.6,5.6-30.8,8.2-42.3,7.9C87,9.5,72.3,7.3,54.7,3.3L39.3,1.2h-4.4
			c-8,0.3-14.4,2.6-19.1,6.7C7.5,14.9,2.4,26,0.6,41.3C-0.1,51.9,5,59,16.1,62.9c14,9.9,22.3,23.5,25.2,40.9
			c2.5,16.1,7.1,31.9,14,47.4C61,164.1,71,169.3,85.4,167c13.3,3.2,22.8,1.6,28.6-5.1s11.3-17.8,16.7-33.7
			c5.4-15.9,9.8-30.8,13.4-45.2c3.6-14.3,9-27.4,16.4-39.3c12.4,5.3,19.1,1.4,20.1-11.7C173.3,12.8,164.1,2.3,152.8,0.7"/>
		<path style="fill:#FFCC99;fill-opacity:0.714;" d="M152.8,0.7h-6.3L141.1,2c-16.6,5.6-30.8,8.2-42.3,7.9C87,9.5,72.3,7.3,54.7,3.3
			L39.3,1.2h-4.4c-8,0.3-14.4,2.6-19.1,6.7C7.5,14.9,2.4,26,0.6,41.3C-0.1,51.9,5,59,16.1,62.9c14,9.9,22.3,23.5,25.2,40.9
			c2.5,16.1,7.1,31.9,14,47.4C61,164.1,71,169.3,85.4,167c13.3,3.2,22.8,1.6,28.6-5.1s11.3-17.8,16.7-33.7
			c5.4-15.9,9.8-30.8,13.4-45.2c3.6-14.3,9-27.4,16.4-39.3c12.4,5.3,19.1,1.4,20.1-11.7C173.3,12.8,164.1,2.3,152.8,0.7"/>
		<path vector-effect="non-scaling-stroke" style="fill:none;stroke:#FF9933;stroke-linecap:round;stroke-linejoin:round;" d="
			M146.4,0.7L141.1,2c-16.6,5.6-30.8,8.2-42.3,7.9C87,9.5,72.3,7.3,54.7,3.3L39.3,1.2h-4.4c-8,0.3-14.4,2.6-19.1,6.7
			C7.5,14.9,2.4,26,0.6,41.3C-0.1,51.9,5,59,16.1,62.9c14,9.9,22.3,23.5,25.2,40.9c2.5,16.1,7.1,31.9,14,47.4
			C61,164.1,71,169.3,85.4,167c13.3,3.2,22.8,1.6,28.6-5.1s11.3-17.8,16.7-33.7c5.4-15.9,9.8-30.8,13.4-45.2
			c3.6-14.3,9-27.4,16.4-39.3c12.4,5.3,19.1,1.4,20.1-11.7C173.4,12.6,164.2,2.1,153,0.5L146.4,0.7"/>
		<path vector-effect="non-scaling-stroke" style="fill:none;stroke:#FF9933;stroke-linecap:round;stroke-linejoin:round;" d="
			M43.7,38.6c-15.3,1-24.5,9-27.6,24.4 M85.4,167c-11.8-3.2-17.8-9.7-18.2-19.5c-0.2-3.3,0.4-6.9,1.5-11c4.9-17.7,4.5-34.4-0.9-50.4
			C62,69.4,54,53.5,43.9,38.6"/>
		<path vector-effect="non-scaling-stroke" style="fill:none;stroke:#FF9933;stroke-linecap:round;stroke-linejoin:round;" d="
			M47.8,38.3l-4.1,0.2 M85.4,167c-2.8-4.7-3.8-11.5-3.2-20c1.5-17.7,3.6-35.3,6.4-52.9s2.8-35.9,0.1-54.8l-40.9-0.9"/>
		<path vector-effect="non-scaling-stroke" style="fill:none;stroke:#FF9933;stroke-linecap:round;stroke-linejoin:round;" d="
			M88.7,39.3h7.6l29-3.7c11.6-0.4,22.3,1.9,32.5,7l2.6,1.3"/>
		<path vector-effect="non-scaling-stroke" style="fill:none;stroke:#FF9933;stroke-linecap:round;stroke-linejoin:round;" d="
			M85.4,167c6.8-5.8,12.8-14.7,18-27.1c6.5-15.5,11.6-31.6,15.1-48.5c3.5-17.5,5.8-36,7-56"/>
	</g>
</g>
</svg>
