<?xml version="1.0" encoding="utf-8"?>
<!-- Generator: Adobe Illustrator 20.1.0, SVG Export Plug-In . SVG Version: 6.00 Build 0)  -->
<svg version="1.1" id="Layer_1" xmlns="http://www.w3.org/2000/svg" xmlns:xlink="http://www.w3.org/1999/xlink" x="0px" y="0px"
	 viewBox="0 0 211.8 196.5" style="enable-background:new 0 0 211.8 196.5;" xml:space="preserve">
<g id="container7">
	<g id="Scene_1_f5_1_">
		<path style="fill:#FFB27F;" d="M206.3,19l-6.5-6.5c-16.2-8.1-33-8.3-50.6-0.6c-3.7,1.7-10.3,0.4-19.8-4
			c-15.9-2.3-28.5-2.6-37.8-0.6c-9,1.7-16.7,1.7-22.9,0C62.3,5.6,55.1,6.7,47,10.4C33.1-2.5,20.7-2.6,9.7,9.8l-0.3,0.4
			c-0.1,0.1-0.4,0.4-0.5,0.5l0,0c-0.1,0.1-0.1,0.1-0.3,0.3l0,0l-6.2,7.4c-4,7.2-1.7,13.7,7,19.4c18.3-1.9,32-1.8,40.9,0.4l5.6,1.2
			L57,40l5,0.6l14.9,4l33.5-1.5c17.8-10.2,29.6-12.3,35.4-6.3c5.6,6,10.1,9.3,13.6,10c4.3,0.6,9-1,14.3-5c5.4-4.1,13.9-3.6,25.5,1.5
			C212.4,36.9,214.7,28.9,206.3,19"/>
		<path style="fill:#FFFFFF;" d="M206.7,19.3l-0.4-0.4c8.4,10,6.1,18-7.1,24.2c-3.3,24.9-9.6,49.2-18.6,72.9
			c-7.9,20.6-29.3,37.3-64.2,50.5c-2.2,1-4.5,2-6.9,2.9l6.9-2.3c34.9-13.3,56.3-30,64.2-50.4c9-23.7,15.3-47.9,18.6-72.9
			C212.4,37.2,214.9,29,206.7,19.3"/>
		<path style="fill:#FFFF99;" d="M199.2,43.2c-11.6-5.1-20.1-5.6-25.5-1.5c-5.2,4-9.9,5.6-14.3,5c5.4,63.4-9,103.4-43.2,119.8
			c34.9-13,56.3-29.9,64.2-50.5C189.6,92.4,195.9,68.1,199.2,43.2"/>
		<path style="fill:#FFFFFF;" d="M9.4,37.7c-8.6-5.8-10.9-12.2-7-19.4c-4.2,7.4-1.9,14.1,7,20.1l0.4,0.4C34.4,52.5,48.1,73,51,99.8
			c2,18,4.6,33.4,7.8,46.2l0,0c-3.1-12.8-5.7-28.3-7.8-46.5c-2.7-27-16.2-47.4-40.5-61.4C10.1,37.9,9.8,37.8,9.4,37.7"/>
		<path style="fill:#FFFF99;" d="M9.4,37.7c0.4,0.1,0.6,0.4,1,0.5C34.8,52,48.4,72.5,51,99.6c2,18.3,4.7,33.8,7.8,46.5
			c11.9,2.6,16.7,8.6,14.7,18.3l3.7,0.6C72.4,81.9,65.5,40.3,56.6,40l-0.5-0.6l-5.6-1.2C41.4,35.9,27.8,35.8,9.4,37.7"/>
		<path style="fill:#FFFF99;" d="M62.1,40.4l-5-0.6h-0.6c8.9,0.3,15.7,41.9,20.5,125.1l6.2,1.2c2.7-0.3,5.1,0.1,7.4,1
			c21.9-39.1,28.5-80.4,19.9-124L77,44.5L62.1,40.4"/>
		<path style="fill:#FFFFFF;" d="M57.1,39.7L56,39.1l0.5,0.6H57.1"/>
		<path style="fill:#FFFF99;" d="M145.9,36.7c-5.7-6-17.6-4-35.4,6.3c8.7,43.6,2,85-19.9,124c1.1,0.5,2.3,1.2,3.3,2l5.7,2.9
			c2.4-0.5,4.8-1.2,7.1-1.8l2.7-0.8c2.3-0.9,4.6-1.8,6.9-2.9c34.1-16.4,48.4-56.4,43.2-119.8C156,46,151.4,42.7,145.9,36.7"/>
		<path style="fill:#FF6600;fill-opacity:0.502;" d="M77,164.9l6.2,1.2c-3.1,0.4-6.5,1.5-10.2,3.5c-0.4-0.4-0.6-0.8-1-1
			c0.5-1.4,1-2.8,1.3-4.1L77,164.9"/>
		<path style="fill:#00FF00;" d="M72.1,168.4c0.5-1.4,1-2.8,1.3-4.1c2.2-9.6-2.7-15.7-14.7-18.3l0,0c-4.2-0.9-9.4-1.4-15.4-1.4
			l26.4,22.2c-2.5-1.2-5.4-0.4-8.4,2c-3.3,2.7-7,7.4-11.1,14.1l24-12.1c-0.3-0.4-0.6-0.8-0.9-1.2l31.7,26.9
			c-1.4-10.1-3.8-17.8-7.1-22.9v-0.1c-1.1-1.8-2.4-3.3-3.8-4.5c-1-0.9-2.2-1.5-3.3-2c-2.3-0.9-4.7-1.3-7.4-1
			c-3.1,0.4-6.5,1.5-10.2,3.5C72.8,169,72.4,168.6,72.1,168.4"/>
		<path style="fill:#00CC00;" d="M73.3,169.6c0.3,0.4,0.6,0.8,0.9,1.2l-24,12.1c8.2,2.3,14.5,0.9,19.2-4.2c0.1-0.1,0.1-0.3,0.4-0.4
			c1.3-1.4,2.3-3.1,3.3-5c0.1,1.9,0.4,3.7,0.8,5.4c0,0.1,0.1,0.3,0.1,0.4c2.9,10.9,13.3,16.6,31.1,17.4L73.3,169.6"/>
		<path style="fill:#00CC00;" d="M43.3,144.6c2.8,14.2,8.8,22.4,18,24.3c3.2-2.6,6-3.2,8.4-2L43.3,144.6"/>
		<path style="fill:#FFFFFF;" d="M97.8,173.6v0.1c0.4-0.4,0.9-0.8,1.5-1l7.5-2.4c-2.3,0.8-4.7,1.3-7.1,1.8
			C98.9,172.3,98.3,172.8,97.8,173.6"/>
		<path style="fill:#FF6600;fill-opacity:0.502;" d="M97.8,173.6c-1.1-1.8-2.4-3.3-3.8-4.5l5.7,2.9
			C98.9,172.3,98.3,172.8,97.8,173.6"/>
		<path style="fill:#FFFFFF;" d="M69.7,178.5c-0.1,0.1-0.3,0.3-0.4,0.4l2.4,0.4c0.6,0,1.4,0,2,0c0-0.1-0.1-0.3-0.1-0.4
			c-0.6,0-1.1,0-1.7,0L69.7,178.5"/>
		<path style="fill:#FF6600;fill-opacity:0.502;" d="M73.7,178.9c-0.6,0-1.1,0-1.7,0l-2.4-0.4c1.3-1.4,2.3-3.1,3.3-5
			C73,175.4,73.3,177.2,73.7,178.9"/>
		<path vector-effect="non-scaling-stroke" style="fill:none;stroke:#FF9900;stroke-linecap:round;stroke-linejoin:round;" d="
			M149.2,11.9c17.6-7.7,34.4-7.4,50.6,0.6 M129.5,7.8c9.6,4.3,16.1,5.6,19.8,4 M91.5,7.1c9.3-1.9,21.9-1.6,37.9,0.7 M68.6,7.1
			c6.2,1.7,13.9,1.7,22.9,0 M46.9,10.2c8-3.7,15.3-4.9,21.7-3.1 M9.6,9.7C20.6-2.7,33-2.6,46.9,10.2 M9.3,10.1l0.3-0.4 M8.8,10.5
			c0.1-0.1,0.3-0.3,0.5-0.5 M8.8,10.6L8.8,10.6 M8.6,10.8c0-0.1,0.1-0.1,0.3-0.3 M8.6,10.8L8.6,10.8 M2.4,18.3l6.1-7.4 M109.6,169.4
			l-2.7,0.8 M199.8,12.5l6.5,6.5"/>
		<path vector-effect="non-scaling-stroke" style="fill:none;stroke:#FF9900;stroke-linecap:round;stroke-linejoin:round;" d="
			M2.4,18.3c-4,7.2-1.7,13.7,7,19.4c18.3-1.9,32-1.8,40.9,0.4l5.6,1.2l1.1,0.6l5,0.6l14.9,4l33.5-1.5c17.8-10.2,29.6-12.3,35.4-6.3
			c5.6,6,10.1,9.3,13.6,10c4.3,0.6,9-1,14.3-5c5.4-4.1,13.9-3.6,25.5,1.5c13.3-6.3,15.5-14.3,7.1-24.2"/>
		<path vector-effect="non-scaling-stroke" style="fill:none;stroke:#FF9900;stroke-linecap:round;stroke-linejoin:round;" d="
			M199.2,43.2c-3.3,24.9-9.6,49.2-18.6,72.9c-7.9,20.6-29.3,37.3-64.2,50.5c-2.2,1-4.5,2-6.9,2.9"/>
		<path vector-effect="non-scaling-stroke" style="fill:none;stroke:#FF9900;stroke-linecap:round;stroke-linejoin:round;" d="
			M159.6,46.6c5.4,63.4-9,103.4-43.2,119.8"/>
		<path vector-effect="non-scaling-stroke" style="fill:none;stroke:#FF9900;stroke-linecap:round;stroke-linejoin:round;" d="
			M58.8,146.1c-3.1-12.8-5.7-28.3-7.8-46.5c-2.7-27-16.2-47.4-40.5-61.4c-0.3-0.3-0.6-0.4-1-0.5"/>
		<path vector-effect="non-scaling-stroke" style="fill:none;stroke:#FF9900;stroke-linecap:round;stroke-linejoin:round;" d="
			M73.4,164.3l3.7,0.6c-4.7-83.1-11.6-124.8-20.5-125"/>
		<path vector-effect="non-scaling-stroke" style="fill:none;stroke:#FF9900;stroke-linecap:round;stroke-linejoin:round;" d="
			M57.1,39.7h-0.6 M77,164.9l6.2,1.2 M90.6,167c21.9-39.1,28.5-80.4,19.9-124"/>
		<path vector-effect="non-scaling-stroke" style="fill:none;stroke:#FF9900;stroke-linecap:round;stroke-linejoin:round;" d="
			M93.9,169.1l5.7,2.9c2.4-0.5,4.8-1.2,7.1-1.8"/>
		<path vector-effect="non-scaling-stroke" style="fill:none;stroke:#FF9900;stroke-linecap:round;stroke-linejoin:round;" d="
			M99.7,172c-0.8,0.4-1.4,0.9-1.9,1.5"/>
		<path vector-effect="non-scaling-stroke" style="fill:none;stroke:#FF9900;stroke-linecap:round;stroke-linejoin:round;" d="
			M73.7,178.9c-0.6,0-1.1,0-1.7,0l-2.4-0.4"/>
	</g>
</g>
</svg>
