<?xml version="1.0" encoding="utf-8"?>
<!-- Generator: Adobe Illustrator 20.1.0, SVG Export Plug-In . SVG Version: 6.00 Build 0)  -->
<svg version="1.1" id="Layer_1" xmlns="http://www.w3.org/2000/svg" xmlns:xlink="http://www.w3.org/1999/xlink" x="0px" y="0px"
	 viewBox="0 0 208.1 168" style="enable-background:new 0 0 208.1 168;" xml:space="preserve">
<g id="container3">
	<g id="Scene_1_f1">
		<path style="fill:#FFABAB;" d="M207.5,29.4l-0.4-7.6c-2-5.7-4.1-8.7-6.1-9.3c-16.4-6.8-33.7-9.6-51.9-8.5
			c-8.5,0.6-17,0.6-25.5,0.2L63.3,0.5c-20-0.4-36.9,4-50.7,13C2.4,19.9-1.3,25.8,1.3,31.3c1.9,4.1,7.4,8,16.5,11.5
			c16.3,6.2,34.3,8.1,54.4,5.9l52.8,2.5c9.2,1.9,18.4,1.9,27.5,0l17.2-4.2c11.4-3.2,21.6-6.9,30.7-11.3
			C204,34,206.3,31.8,207.5,29.4"/>
		<path vector-effect="non-scaling-stroke" style="fill:#EEBBBB;" d="M165.2,36.4c7.2-2.4,12.7-6.5,16.8-12.5
			c-20.9-5.8-40.6-9.5-59.2-10.8l-36.2-2.3c-17-1.8-33.8,0.1-50.2,5.9c-20.2,6.9-18.8,12.6,4.4,16.8l45.8,3l52.2,1.7L165.2,36.4"/>
		<path style="fill:#FFABAB;" d="M200.6,35.8c-9.1,4.4-19.3,8.1-30.7,11.3l-17.2,4.2c-9.1,1.9-18.3,1.9-27.5,0l-52.8-2.5
			c-20.1,2.3-38.3,0.4-54.4-5.9C8.9,39.2,3.4,35.4,1.5,31.3L4,44.5c1.5,8.8,2.3,18.2,2,28c-0.4,16.1,2.6,30.7,8.7,43.5
			c6.1,13.2,15.4,24.6,27.5,34.4c6.4,4.8,14.2,8.6,23.6,11.4c16.4,4.4,34.1,6.2,52.8,5.6c19-0.7,35.5-6.2,49.6-16.4
			c9.3-6.5,17.2-14.8,23.6-24.6c8.5-12.7,11.7-27,9.5-42.9C199,67.5,198.8,51.7,200.6,35.8"/>
		<path vector-effect="non-scaling-stroke" style="fill:none;stroke:#000000;stroke-linecap:round;stroke-linejoin:round;" d="
			M207.1,21.7c-2-5.7-4.1-8.7-6.1-9.3c-16.4-6.8-33.7-9.6-51.9-8.5c-8.5,0.6-17,0.6-25.5,0.2L63.3,0.5c-20-0.4-36.9,4-50.7,13
			C2.4,19.9-1.3,25.8,1.3,31.3l2.6,13.2c1.5,8.8,2.3,18.2,2,28c-0.4,16.1,2.6,30.7,8.7,43.5c6.1,13.2,15.4,24.6,27.5,34.4
			c6.4,4.8,14.2,8.6,23.6,11.4c16.4,4.4,34.1,6.2,52.8,5.6c19-0.7,35.5-6.2,49.6-16.4c9.3-6.5,17.2-14.8,23.6-24.6
			c8.5-12.7,11.7-27,9.5-42.9c-2-16-2.3-31.9-0.5-47.7c3.5-1.8,5.8-4,6.9-6.4L207.1,21.7"/>
		<path vector-effect="non-scaling-stroke" style="fill:none;stroke:#000000;stroke-linecap:round;stroke-linejoin:round;" d="
			M1.5,31.4c1.9,4.1,7.4,8,16.5,11.5c16.3,6.2,34.3,8.1,54.4,5.9l52.8,2.5c9.2,1.9,18.4,1.9,27.5,0l17.2-4.2
			c11.4-3.2,21.6-6.9,30.7-11.3"/>
		<path vector-effect="non-scaling-stroke" style="fill:none;stroke:#000000;stroke-linecap:round;stroke-linejoin:round;" d="
			M165.2,36.4c7.2-2.4,12.7-6.5,16.8-12.5c-20.9-5.8-40.6-9.5-59.2-10.8l-36.2-2.3c-17-1.8-33.8,0.1-50.2,5.9
			c-20.2,6.9-18.8,12.6,4.4,16.8l45.8,3l52.2,1.7L165.2,36.4"/>
	</g>
</g>
</svg>
