<?xml version="1.0" encoding="utf-8"?>
<!-- Generator: Adobe Illustrator 20.1.0, SVG Export Plug-In . SVG Version: 6.00 Build 0)  -->
<svg version="1.1" id="Layer_1" xmlns="http://www.w3.org/2000/svg" xmlns:xlink="http://www.w3.org/1999/xlink" x="0px" y="0px"
	 viewBox="0 0 174.7 199.4" style="enable-background:new 0 0 174.7 199.4;" xml:space="preserve">
<g id="container4">
	<path style="fill:#00FF00;" d="M159,91.4c-0.2-1.2-0.3-2.4-0.5-3.5c-7.6-45.3-27-59.9-58.1-44c-0.6-0.8-1.3-1.5-1.9-2
		C109.6,13.9,92,0,45.5,0l48.9,39.2c-4.7-2-9.9-0.8-15.8,3.5c-6.2,4.7-13.1,13-20.6,24.9l44.2-21.3c-0.5-0.8-1-1.5-1.6-2.1L159,91.4
		"/>
	<path style="fill:#FFABAB;" d="M158.5,87.8c0.2,1.1,0.3,2.3,0.5,3.5c-14.7-0.6-26.6-2.9-35.7-7l-6,5.6c-5.3,4.7-11.5,8.1-18.5,10.2
		L62.3,118c-12.6,9-25.7,14.5-39.1,16.3c-7.6,0.9-12.9,0.3-15.9-1.8l7.2,8.1c4.6,5.4,8.9,11.5,12.8,18.2c6.4,11.2,14.3,20,23.7,26.4
		c9.6,6.7,20.4,11.1,32.7,13.2c6.3,0.9,13.1,0.6,20.4-1c12.8-3.2,25.4-8.5,37.8-15.8c12.4-7.5,21.3-17.4,26.6-29.6
		c3.5-7.9,5.4-16.4,5.7-25.4c0.5-11.9-3.3-22.8-11.2-32.7C161.4,91.9,159.9,89.9,158.5,87.8"/>
	<path style="fill:#00CC00;" d="M65.3,37c3.9,2.8,8.4,4.7,13.3,5.7c5.8-4.4,11.1-5.5,15.8-3.5L45.5,0c2.7,13.6,7.3,24.1,13.6,31.3
		c2.1-0.4,4.4-0.8,6.8-1.1L32.1,68.6c0.4-0.3,0.9-0.6,1.4-0.9l15.4,29.2c0.7-2.4,1.1-4.7,1.3-6.9c0.2-2.7-0.1-5.1-0.8-7.4
		c-1.6-5.7-5.8-10.1-12.5-13.4C53.4,68.4,62.9,57.7,65.3,37"/>
	<path style="fill:#00FF00;" d="M65.8,30.2c-2.4,0.3-4.6,0.7-6.8,1.1c-29.2,5.5-38.3,18-27.5,37.6c-0.6,0.4-1.1,0.8-1.5,1.3
		c-20-7.4-30,4.2-30,34.9l28.1-32.3c-1.5,3.1-0.6,6.6,2.6,10.4c1.4,1.7,3.2,3.5,5.5,5.4c2,1.6,4.4,3.3,7.1,5.1
		c1.6,1,3.4,2.1,5.3,3.1L33.4,67.6c-0.5,0.3-0.9,0.6-1.4,0.9L65.8,30.2"/>
	<path style="fill:#00CC00;" d="M100.6,44.2c0.6,0.6,1.1,1.3,1.6,2.1L58.1,67.6c7.6,2,14.4,2.4,20.3,1.1c5.7-1.2,10.6-4,14.8-8.2
		c2.6-2.7,5-6,7-9.8c0,1.8,0.2,3.5,0.4,5.2c0.6,3.8,1.7,7.3,3.2,10.5c2.3,4.8,5.7,9,10.2,12.4c2.7,2.1,5.8,3.9,9.3,5.4
		c9.2,4.1,21.1,6.4,35.7,7L100.6,44.2"/>
	<path style="fill:#FFABAB;" d="M117.3,89.9l6-5.6c-3.5-1.6-6.6-3.4-9.3-5.4l-11.3,7.4l-35.8,18.2l-32,15.1
		c-17.4,5.7-20.6,2.4-9.8-9.9c5.4-6.4,11.6-11.7,18.5-16.1c-2.7-1.8-5.1-3.4-7.1-5.1C22.9,95.8,13.3,105,7.7,116.3
		c-4.2,8.2-4.4,13.6-0.3,16.3c3,2.1,8.3,2.7,15.9,1.8c13.4-1.8,26.4-7.2,39.1-16.3l36.5-17.9C105.8,98,112,94.6,117.3,89.9"/>
	<path style="fill:#EEBBBB;" d="M103.8,66.5C96,69,88.6,71.9,81.6,75.1L56.3,87c-2.1,0.9-4.2,1.9-6.2,2.9c-0.2,2.2-0.6,4.5-1.3,6.9
		c-1.9-1.1-3.6-2.1-5.3-3.1c-6.9,4.4-13.1,9.7-18.5,16.1c-10.8,12.2-7.5,15.5,9.8,9.9l32-15.1l35.8-18.2l11.3-7.4
		C109.5,75.5,106.1,71.3,103.8,66.5"/>
	<path style="fill:#FFABAB;" d="M81.6,75.1L56.3,87c-2.1,0.9-4.2,1.9-6.2,2.9c0.2-2.7-0.1-5.1-0.8-7.4l29.1-13.8
		c5.7-1.2,10.6-4,14.8-8.2c0.8-0.5,1.6-1,2.4-1.5c1.7-1.1,3.4-2.1,5.1-3c0.6,3.8,1.7,7.3,3.2,10.5C95.9,69,88.5,71.9,81.6,75.1"/>
	<path style="fill:#00CC00;" d="M30.9,83.3c-3.2-3.9-4-7.3-2.6-10.4L0.2,105.2C18.3,101.8,28.5,94.5,30.9,83.3"/>
	<path vector-effect="non-scaling-stroke" style="fill:none;stroke:#000000;stroke-linecap:round;stroke-linejoin:round;" d="
		M7.7,116.3c5.6-11.3,15.2-20.6,28.7-27.7 M7.3,132.6c-4-2.7-3.9-8.1,0.3-16.3 M14.5,140.7l-7.2-8.1 M27.3,158.9
		c-3.9-6.7-8.2-12.8-12.8-18.2 M51,185.2c-9.4-6.4-17.3-15.2-23.7-26.4 M83.6,198.5c-12.2-2.1-23.1-6.6-32.7-13.2 M104.1,197.4
		c-7.3,1.6-14.1,2-20.4,1 M141.9,181.6c-12.4,7.4-25,12.6-37.8,15.8 M168.4,152c-5.3,12.2-14.1,22.1-26.6,29.6 M174.2,126.6
		c-0.3,9-2.2,17.5-5.7,25.4 M163,93.9c7.9,9.9,11.7,20.8,11.2,32.7 M158.5,87.8c1.4,2.1,2.9,4.1,4.5,6"/>
	<path vector-effect="non-scaling-stroke" style="fill:none;stroke:#000000;stroke-linecap:round;stroke-linejoin:round;" d="
		M123.2,84.3l-6,5.6c-5.3,4.7-11.5,8.1-18.5,10.2L62.2,118c-12.6,9-25.7,14.5-39.1,16.3c-7.6,0.9-12.9,0.3-15.9-1.8"/>
	<path vector-effect="non-scaling-stroke" style="fill:none;stroke:#000000;stroke-linecap:round;stroke-linejoin:round;" d="
		M49.3,82.5l29.1-13.8"/>
	<path vector-effect="non-scaling-stroke" style="fill:none;stroke:#000000;stroke-linecap:round;stroke-linejoin:round;" d="
		M95.5,59c1.7-1.1,3.4-2.1,5.1-3 M93.2,60.6c0.8-0.5,1.6-1,2.4-1.5"/>
	<path vector-effect="non-scaling-stroke" style="fill:none;stroke:#000000;stroke-linecap:round;stroke-linejoin:round;" d="
		M113.9,78.9l-11.3,7.4l-35.8,18.2l-32,15.1c-17.4,5.7-20.6,2.4-9.8-9.9c5.4-6.4,11.6-11.7,18.5-16.1"/>
	<path vector-effect="non-scaling-stroke" style="fill:none;stroke:#000000;stroke-linecap:round;stroke-linejoin:round;" d="
		M103.8,66.5C96,69,88.6,71.9,81.6,75.1L56.3,87c-2.1,0.9-4.2,1.9-6.2,2.9"/>
</g>
</svg>
