<?xml version="1.0" encoding="utf-8"?>
<!-- Generator: Adobe Illustrator 20.1.0, SVG Export Plug-In . SVG Version: 6.00 Build 0)  -->
<svg version="1.1" id="Layer_1" xmlns="http://www.w3.org/2000/svg" xmlns:xlink="http://www.w3.org/1999/xlink" x="0px" y="0px"
	 viewBox="0 0 197.4 148.5" style="enable-background:new 0 0 197.4 148.5;" xml:space="preserve">
<g id="container8">
	<g id="Scene_1_f6_2_">
		<path style="fill:#FFFF99;" d="M154.6,75.3c-1.7-1.4-3.5-2.9-5.3-4.5c-3.3-2.7-6.9-5.5-10.8-8.4l-1-0.8c-1-0.8-2.1-1.5-3.2-2.3
			c-15.8-11.5-23.5-27.5-23.1-47.7l-0.1,0.8v-0.5C103.4,22.5,98.6,31,96.6,37.1l-1.3,4.1l0.1,0.3l0.1,0.1c0,0.1-0.1,0.1-0.1,0.1
			c-2.6,5.8,20.8,24.7,70.1,56.9l3.3-9c-1.4-1.7-3-3.3-4.6-5.1C161.6,81.7,158.2,78.5,154.6,75.3"/>
		<path style="fill:#00FF00;" d="M197.4,86.7c-8.7,1.3-15.5,3.2-20.7,5.8c-10.4,5.5-12.8,13.8-7.1,25.3c0,0,0,0,0.1,0
			c0.1,0.3,0.3,0.6,0.4,0.9c-0.4,0.3-0.8,0.6-1,1c-3.6-1.4-6.8-1.9-9.6-1.8c-0.1,0-0.3,0-0.4,0.1c-4.4,0.5-7.7,2.9-10,7.5
			c-0.1,0.3-0.3,0.5-0.4,0.9c-0.1,0.1-0.1,0.3-0.3,0.5c-2.2,5-3.2,12.1-3.2,21.5l22.2-26.5c-1.2,2.6-0.4,5.4,2.1,8.4
			c2.7,3.3,7.4,7,14.1,11.1l-12.2-24c-0.4,0.3-0.8,0.6-1.2,0.9L197.4,86.7 M169.1,119.6c-3.6-1.4-6.8-1.9-9.6-1.8
			c0.9-0.9,1.8-1.8,2.7-2.7c1.9-1.4,4.4-0.5,7.6,2.6c0,0,0,0,0.1,0c0.1,0.3,0.3,0.6,0.4,0.9C169.8,119,169.4,119.3,169.1,119.6"/>
		<path style="fill:#FFB27F;" d="M170,90.2c2.2,0.9,4.4,1.7,6.8,2.3c-10.4,5.5-12.8,13.8-7.1,25.3c-3.2-3.2-5.8-4.1-7.7-2.6
			c-0.1-2.3,0-4.9,0.3-7.5l3.3-9l3.3-9C169.3,89.8,169.5,89.9,170,90.2L170,90.2"/>
		<path style="fill:#FFFFFF;" d="M169,89.8c0.3,0.1,0.5,0.3,0.9,0.4c-0.3-0.1-0.4-0.3-0.6-0.4c-1.4-1.7-3.1-3.5-4.9-5.1
			C166.1,86.3,167.6,88.1,169,89.8"/>
		<path style="fill:#FFFF99;" d="M162.3,107.7l3.3-9c-49.1-32.2-72.5-51.1-70-56.9c0,0,0-0.1,0.1-0.1l-0.1,0.1L95.4,42L94,45.2
			c-0.9,2-1.8,5.6-3,10.7C90,61,85.7,67.8,78.3,76C102.2,97,130.2,107.4,162.3,107.7"/>
		<path style="fill:#00CC00;" d="M170.4,118.4c0.4-0.3,0.8-0.6,1.2-0.9l12.2,24c3-10.6-0.3-18.2-9.5-22.9
			c14.5-0.6,22.2-11.3,23.1-32L170.4,118.4"/>
		<path style="fill:#00CC00;" d="M169.7,130.5c-2.6-3.2-3.2-6-2.1-8.4l-22.2,26.4C159.6,145.7,167.7,139.7,169.7,130.5"/>
		<path style="fill:#FFFFFF;" d="M148.5,127c0.1-0.3,0.1-0.4,0.3-0.5c-19.1,14.7-36,21-50.5,18.7c-3-0.5-5.8-0.9-8.7-1.4
			c3,0.6,5.9,1.2,8.9,1.7C112.9,147.6,129.6,141.5,148.5,127"/>
		<path style="fill:#FFFF99;" d="M148.9,126.5c0.1-0.3,0.3-0.6,0.4-0.9c-22,12.7-50.6,6.7-85.9-18c-1.3,2.9-4.1,5.2-8.3,7
			c-4.4,1.8-7.2,7.2-8.3,16.1c0.1,0,0.1,0.1,0.3,0.1c1.2,0.5,2.4,0.9,3.6,1.4c8.2,3.2,16.6,5.9,25,8.2c3.7,1,7.6,1.9,11.4,2.7
			c0.9,0.1,1.9,0.4,2.8,0.5c2.8,0.5,5.8,1,8.7,1.4C112.9,147.5,129.6,141.2,148.9,126.5"/>
		<path style="fill:#FFFF99;" d="M149.1,125.6c2.3-4.6,5.7-7.2,10-7.5c0.9-0.9,1.9-1.9,2.8-2.9c-0.1-2.3,0-4.9,0.3-7.5
			c-32.1-0.1-60.1-10.7-84-31.7C65.5,83.4,60,89.9,61.6,95.6c1.7,5.6,2.2,9.6,1.5,12C98.6,132.3,127.3,138.3,149.1,125.6"/>
		<path style="fill:#FFFFFF;" d="M159.3,118.1c0.1,0,0.1-0.1,0.4-0.1c0.9-0.9,1.8-1.8,2.7-2.7c1.9-1.4,4.4-0.5,7.6,2.6
			c-3.2-3.2-5.8-4.1-7.7-2.6C161.1,116.1,160.2,117,159.3,118.1"/>
		<path vector-effect="non-scaling-stroke" style="fill:#FFFFFF;" d="M34,18.3c0-0.1-0.1-0.4-0.1-0.5v0.1L34,18.3"/>
		<path style="fill:#FFFF99;" d="M34,18.3l-0.1-0.4c-2.8,7.7-4.4,13.6-4.6,17.6l-0.1,2.7l0.1,0.1h0.1v0.2c-0.5,3,9.8,8.3,31,16.1
			c0.8-1,1.5-2,2.3-2.9c1.3-1.5,2.4-2.9,3.5-4.5c-3.2-1.4-6.7-2.8-10.4-4.3C44.6,38.5,37.3,30.3,34,18.3"/>
		<path style="fill:#FFB27F;" d="M94.8,1.7C94.8,1.7,94.7,1.7,94.8,1.7L87,4.5c-6.4,3.7-8.5,10.6-6.3,20.7c-5,3.8-8.2,7.9-9.5,12.4
			c-0.9,3.1-2.6,6.4-4.9,9.7h-0.1c-1,1.4-2.2,2.9-3.5,4.5c-0.8,0.9-1.5,1.8-2.3,2.9c-2.8,4-5.7,9.1-8.5,15.3
			c-0.8,1.7-1.5,3.5-2.3,5.1c-0.8,7.4-2.2,12-4.5,13.8c-0.3,0.1-0.4,0.4-0.6,0.5c-4.8,3.6-8.5,7.5-11.3,11.9
			c-3.6,5.6-5.5,11.9-5.9,18.9c0,0.1,0,0.3,0,0.4c0.1,0.5,0.1,1,0.4,1.7c0.3,1.5,0.8,3.1,1.3,4.5c0.6,1.9,1.5,3.5,2.4,4.6
			c3.3,4.3,8.3,4.2,15.2-0.4c1.2-9,3.9-14.3,8.3-16.1c4.2-1.8,7.1-4.2,8.3-7c0.6-2.4,0.1-6.4-1.5-12c-1.7-5.6,3.9-12.1,16.6-19.6
			c7.4-8.2,11.7-15,12.7-20.1s2.1-8.7,3-10.7l1.4-3.2v-0.8l1.3-4.1c1.9-6.1,6.8-14.6,14.5-25.2c-0.5-8.7-4.6-12.4-12.6-11.1L95,1.9
			C94.9,1.6,94.8,1.6,94.8,1.7"/>
		<path style="fill:#FFFFFF;" d="M111.5,12.4l-0.1-0.5c-0.5-8.8-4.8-12.5-12.8-11.1c8-1.3,12.1,2.4,12.6,11.1l0.1-0.1
			c-0.4,20.3,7.3,36.2,23.1,47.7c1,0.8,2.1,1.5,3.2,2.3c-1-0.8-1.9-1.5-3.1-2.3C118.9,48.2,111.2,32.5,111.5,12.4L111.5,12.4"/>
		<path style="fill:#FFFFFF;" d="M111.1,11.9v0.5l0.1-0.8L111.1,11.9"/>
		<path style="fill:#FFFFFF;" d="M95.4,41.2V42l0.1-0.1c0-0.1,0-0.3,0-0.4L95.4,41.2"/>
		<path style="fill:#FFFF99;" d="M52,70c2.8-6.3,5.8-11.5,8.5-15.3c-21.2-7.7-31.6-13-30.9-16.1h-0.2L29,40.8
			c-0.1,1.4-0.1,3.7,0,6.9c0.3,3.3-1.3,8.1-4.5,14.2C33.5,66.3,42.7,69,52,70"/>
		<path style="fill:#FFFF99;" d="M49.7,75.1c0.8-1.8,1.4-3.6,2.3-5.1c-9.4-0.9-18.5-3.6-27.5-8.1c-6.4,6.5-8.7,11.4-6.8,14.5
			c1.9,3.2,3,5.5,3,7c8.9,3.2,16.8,5.1,24,6c0.3-0.1,0.4-0.4,0.6-0.5C47.5,87.1,48.9,82.5,49.7,75.1"/>
		<path style="fill:#FFFFFF;" d="M46.9,131c-0.1,0-0.1-0.1-0.3-0.1c-6.7,4.6-11.8,4.7-15.2,0.4C34.8,135.7,39.8,135.6,46.9,131"/>
		<path style="fill:#FFFFFF;" d="M29.4,38.6l0.1-0.1c-0.1-0.1-0.1-0.1-0.1-0.1l-0.1-0.1L29.4,38.6"/>
		<path style="fill:#FFFF99;" d="M19.3,100.7l14.1,0.6c2.8-4.5,6.5-8.4,11.3-11.9c-7.2-0.8-15.2-2.8-24-6c-0.3,1.9-1.7,3.8-3.9,5.8
			c-2.3,1.8-3.1,5.5-2.3,11l0,0C16.1,100.4,17.6,100.5,19.3,100.7"/>
		<path style="fill:#FFFFFF;" d="M8.5,104c1.8,0,3.9-1.3,5.9-3.8l0,0C12.3,102.6,10.3,103.9,8.5,104"/>
		<path style="fill:#FFB27F;" d="M25.1,13.1l-2.2,1.2c-0.1,0.1-0.4,0.1-0.5,0.3L16,21.3c-0.8,2.7-0.3,6,1.7,9.7
			c-2.4,3.1-3.6,6.1-3.6,9.1c-0.1,2.9-1,6.1-2.8,9.8C9.4,53.6,8.1,59,7.1,66.1c0.8,4.6,0.6,7.5-0.4,9C1.3,81.7-0.6,89,0.9,97
			c0.6,1.3,1.3,2.6,2.1,3.6c0,0.1,0.1,0.1,0.1,0.1c1.7,2.3,3.3,3.5,5.3,3.3c1.8-0.1,3.9-1.3,5.9-3.8c-0.8-5.6,0-9.2,2.3-11
			s3.6-3.7,3.9-5.8c0-1.5-1-3.8-3-7s0.4-8.1,6.8-14.5c3.2-6.1,4.8-10.9,4.5-14.2c-0.1-3.2-0.1-5.5,0-6.9l0.4-2.2l-0.1-0.5l0.1-2.7
			c0.3-4.1,1.8-10,4.6-17.6C32.4,12.9,29.4,11.3,25.1,13.1"/>
		<path style="fill:#FFFFFF;" d="M34,17.8c0,0.1,0.1,0.4,0.1,0.5c3.2,12,10.4,20.3,21.7,24.7c3.9,1.5,7.3,2.9,10.4,4.3h0.2
			c-3.2-1.4-6.7-2.9-10.4-4.3c-11.2-4.4-18.4-12.5-21.6-24.7L34,17.8c-1.5-5-4.5-6.5-8.9-4.7C29.4,11.3,32.4,12.9,34,17.8L34,17.8"
			/>
		<path vector-effect="non-scaling-stroke" style="fill:none;stroke:#FF9900;stroke-linecap:round;stroke-linejoin:round;" d="
			M138.6,62.4c3.9,2.9,7.4,5.8,10.8,8.4 M137.6,61.7l1,0.8 M94.9,1.6l3.6-0.8 M94.8,1.7l0.1-0.1 M94.7,1.7
			C94.7,1.7,94.8,1.7,94.7,1.7 M87,4.4l7.7-2.8 M80.7,25.1C78.5,15,80.6,8.1,87,4.4 M71.2,37.5c1.3-4.5,4.5-8.6,9.5-12.4 M66.3,47.2
			c2.3-3.3,4-6.7,4.9-9.7 M23,14.1l2.2-1.2 M22.5,14.3c0.1-0.1,0.4-0.1,0.5-0.3 M16.1,21l6.4-6.7 M17.7,30.7c-1.9-3.8-2.4-7-1.7-9.7
			 M14.1,39.8c0-2.9,1.3-5.9,3.6-9.1 M11.3,49.6c1.8-3.7,2.7-6.9,2.8-9.8 M7.1,66c1-7.2,2.3-12.5,4.1-16.4 M6.8,75
			c1-1.4,1.2-4.3,0.4-9 M1,96.8C-0.5,88.9,1.4,81.6,6.8,75 M3.1,100.4c-0.8-1-1.4-2.3-2.1-3.6 M3.2,100.7l-0.1-0.2 M8.5,104
			c-1.9,0.1-3.6-1-5.3-3.3 M19.3,100.7c-1.7-0.1-3.2-0.3-4.9-0.5 M33.4,101.3l-14.1-0.6 M27.5,120.1c0.4-7,2.4-13.3,5.9-18.9
			 M27.5,120.6c0-0.1,0-0.3,0-0.4 M27.8,122.2c-0.1-0.5-0.3-1-0.4-1.7 M29,126.6c-0.5-1.4-0.9-2.9-1.3-4.5 M31.5,131.2
			c-0.9-1.2-1.8-2.7-2.4-4.6 M50.5,132.4c-1.2-0.5-2.4-0.9-3.6-1.4 M75.5,140.6c-8.5-2.3-16.8-5-25-8.2 M86.8,143.1
			c-3.9-0.8-7.7-1.7-11.4-2.7 M89.7,143.8c-0.9-0.1-1.9-0.4-2.8-0.5 M170,90.2c2.2,0.9,4.4,1.7,6.8,2.3 M169.9,90.2L169.9,90.2
			 M154.6,75.3c3.6,3.2,6.9,6.3,9.8,9.2 M149.4,70.9c1.8,1.5,3.6,3.1,5.3,4.5"/>
		<path vector-effect="non-scaling-stroke" style="fill:none;stroke:#FF9900;stroke-linecap:round;stroke-linejoin:round;" d="
			M137.6,61.7c-1-0.8-2.1-1.5-3.2-2.3c-15.8-11.5-23.5-27.5-23.1-47.7l-0.1,0.8V12c-7.8,10.5-12.6,19-14.6,25.1l-1.3,4.1 M95.7,41.6
			C95.7,41.7,95.6,41.7,95.7,41.6c-2.7,5.9,20.7,24.8,70,57l3.3-9c-1.4-1.7-3-3.3-4.6-5.1"/>
		<path vector-effect="non-scaling-stroke" style="fill:none;stroke:#FF9900;stroke-linecap:round;stroke-linejoin:round;" d="
			M162,115.1c1.9-1.5,4.5-0.6,7.7,2.6 M162.3,107.7c-0.3,2.7-0.4,5.2-0.3,7.5 M165.7,98.8l-3.3,9 M169.9,90.2
			c-0.3-0.1-0.6-0.3-0.9-0.4"/>
		<path vector-effect="non-scaling-stroke" style="fill:none;stroke:#FF9900;stroke-linecap:round;stroke-linejoin:round;" d="
			M95.7,41.6L95.7,41.6l-0.3,0.2L94,45c-0.9,2-1.8,5.6-3,10.7c-1,5.1-5.3,11.9-12.7,20.1c23.9,21,51.9,31.6,84,31.7"/>
		<path vector-effect="non-scaling-stroke" style="fill:none;stroke:#FF9900;stroke-linecap:round;stroke-linejoin:round;" d="
			M148.9,126.5c-19.1,14.7-36,21-50.5,18.7c-3-0.5-5.8-0.9-8.7-1.4"/>
		<path vector-effect="non-scaling-stroke" style="fill:none;stroke:#FF9900;stroke-linecap:round;stroke-linejoin:round;" d="
			M149.1,125.6c-22,12.7-50.6,6.7-85.9-18c-1.3,2.9-4.1,5.2-8.3,7c-4.4,1.8-7.2,7.2-8.3,16.1c0.1,0,0.1,0.1,0.3,0.1"/>
		<path vector-effect="non-scaling-stroke" style="fill:none;stroke:#FF9900;stroke-linecap:round;stroke-linejoin:round;" d="
			M159.3,118.1c0.9-0.9,1.9-1.9,2.8-2.9 M78.4,76c-12.7,7.4-18.2,13.9-16.6,19.6c1.7,5.6,2.2,9.6,1.5,12"/>
		<path vector-effect="non-scaling-stroke" style="fill:none;stroke:#FF9900;stroke-linecap:round;stroke-linejoin:round;" d="
			M34,18.3c0-0.1-0.1-0.4-0.1-0.5v0.1L34,18.3"/>
		<path vector-effect="non-scaling-stroke" style="fill:none;stroke:#FF9900;stroke-linecap:round;stroke-linejoin:round;" d="
			M34,17.8c-2.8,7.7-4.3,13.6-4.6,17.6l-0.1,2.7 M29.6,38.3L29.6,38.3c-0.5,3,9.8,8.4,30.9,16.2c0.8-1,1.5-2,2.3-2.9
			c1.3-1.5,2.4-2.9,3.5-4.5c-3.2-1.4-6.7-2.8-10.4-4.3c-11.2-4.4-18.5-12.6-21.7-24.7"/>
		<path vector-effect="non-scaling-stroke" style="fill:none;stroke:#FF9900;stroke-linecap:round;stroke-linejoin:round;" d="
			M66.3,47.2L66.3,47.2 M60.5,54.5c-2.8,4-5.7,9.1-8.5,15.3c-0.8,1.7-1.5,3.5-2.3,5.1c-0.8,7.4-2.2,12-4.5,13.8
			c-0.3,0.1-0.4,0.4-0.6,0.5c-4.8,3.6-8.5,7.5-11.3,11.9 M31.5,131.2c3.3,4.3,8.3,4.2,15.2-0.4 M95.4,42v-0.8 M111.1,11.9
			c-0.5-8.7-4.6-12.4-12.6-11.1"/>
		<path vector-effect="non-scaling-stroke" style="fill:none;stroke:#FF9900;stroke-linecap:round;stroke-linejoin:round;" d="
			M111.1,11.9l0.1-0.1"/>
		<path vector-effect="non-scaling-stroke" style="fill:none;stroke:#FF9900;stroke-linecap:round;stroke-linejoin:round;" d="
			M29.6,38.4l-0.2,0.1L29,40.7c-0.1,1.4-0.1,3.7,0,6.9c0.3,3.3-1.3,8.1-4.5,14.2c9,4.5,18.1,7.2,27.5,8.1"/>
		<path vector-effect="non-scaling-stroke" style="fill:none;stroke:#FF9900;stroke-linecap:round;stroke-linejoin:round;" d="
			M24.5,61.9c-6.4,6.5-8.7,11.4-6.8,14.5c1.9,3.2,3,5.5,3,7c8.9,3.2,16.8,5.1,24,6"/>
		<path vector-effect="non-scaling-stroke" style="fill:none;stroke:#FF9900;stroke-linecap:round;stroke-linejoin:round;" d="
			M29.3,38.1l0.1,0.5"/>
		<path vector-effect="non-scaling-stroke" style="fill:none;stroke:#FF9900;stroke-linecap:round;stroke-linejoin:round;" d="
			M20.6,83.4c-0.3,1.9-1.7,3.8-3.9,5.8c-2.3,1.8-3.1,5.5-2.3,11l0,0"/>
		<path vector-effect="non-scaling-stroke" style="fill:none;stroke:#FF9900;stroke-linecap:round;stroke-linejoin:round;" d="
			M14.4,100.2c-2.1,2.4-4.1,3.7-5.9,3.8"/>
		<path vector-effect="non-scaling-stroke" style="fill:none;stroke:#FF9900;stroke-linecap:round;stroke-linejoin:round;" d="
			M34,17.8c-1.7-4.9-4.6-6.5-8.9-4.9"/>
	</g>
</g>
</svg>
