<?xml version="1.0" encoding="utf-8"?>
<!-- Generator: Adobe Illustrator 20.1.0, SVG Export Plug-In . SVG Version: 6.00 Build 0)  -->
<svg version="1.1" id="Layer_1" xmlns="http://www.w3.org/2000/svg" xmlns:xlink="http://www.w3.org/1999/xlink" x="0px" y="0px"
	 viewBox="0 0 270 159.9" style="enable-background:new 0 0 270 159.9;" xml:space="preserve">
<g id="container6">
	<g id="Scene_1_f4_2_">
		<rect x="39.9" y="8.9" style="fill:#336633;" width="191.6" height="141.2"/>
		<path style="fill:#FF82A3;" d="M248.7,9.1c-0.3-5.6-3.3-6.5-9-2.6c-4.7-8.9-9.3-7.9-13.8,3.1c-7.7,2.2-11.9,9.2-12.6,20.9
			c-7.2-4.1-12.6-1.3-16.3,8.8c-6,1.7-9,6.9-9,15.6c0,1.7,0.1,3.4,0.4,5.3c0,0.4,0.1,0.6,0.1,1c-4.9-1.2-7.6,1.6-8.5,8
			c-0.1,1.2-0.3,2.5-0.3,3.8c0,0.1,0,0.4,0,0.6c-8.4-0.9-13.5,4.5-15.6,16.3c-2.6,0.5-4.9,1.8-6.7,3.8c-0.3,0.3-0.5,0.6-0.8,1
			c-0.5,0.9-1.2,1.8-1.8,3.1c-0.5,1.2-0.9,2.3-1.3,3.8c-6.8-0.4-10.4,4.9-10.4,16.1c0,0.1,0,0.3,0,0.4v0.4c0,2.1-0.1,4-0.4,5.7
			c-0.7,5.3-2.1,9.6-4.5,12.7c0.1,0.1,0.3,0.4,0.4,0.5c0.8,1,1,2.3,0.8,3.8c-0.4,2.5-2,5.4-4.7,8.9c-0.1,0.1-0.1,0.4-0.4,0.5h-0.1
			c-0.1,0.1-0.1,0.4-0.4,0.5c0.1,0,0.4-0.1,0.5-0.1s0.4-0.1,0.5-0.1c0.1-0.1,0.3-0.1,0.4-0.1c0.1-0.1,0.4-0.3,0.7-0.4
			c0.8-0.4,1.4-0.8,2.4-1.2c3.5-3.2,4.5-6.4,2.9-9.2c3.9-2.7,6.6-8.3,8-16.6c2-10.6,6.3-14.5,12.8-11.4c3-5.7,6.9-8.2,12.2-7.1
			c3.9-10.5,9.8-13.7,17.7-9.6c1.7-9.5,5.2-12.3,10.6-8.6c0.4-12.8,4.3-18.8,11.8-17.8c5.2-8.3,10.9-9.1,17-2.2
			c2.5-10.6,7.5-15.6,14.9-15.2c0-0.8,0.1-1.6,0.1-2.2c0.1-1,0.1-1.9,0.1-2.9c0-0.3,0.1-0.6,0.1-0.9c0-1.2,0-2.3,0-3.5
			c-0.1-7.5-1.3-12.7-3.4-15.3c0.4-0.1,0.7-0.3,1-0.5c1.2-0.9,2.1-2.5,2.6-4.7C248.3,16.1,248.8,12,248.7,9.1 M135.4,150.9
			c0.1,0.1,0.3,0.1,0.5,0.1c-0.3,0.3-0.7,0.5-0.9,0.6c-1.3-0.9-2.4-1.8-3.3-2.6c0.8,0.4,1.6,0.8,2.4,1.2c0.3,0.1,0.5,0.1,0.7,0.4
			h-0.1c-0.1,0.1-0.1,0.4-0.4,0.5c0.1,0,0.4-0.1,0.5-0.1s0.4-0.1,0.5-0.1C135.1,150.8,135.3,150.8,135.4,150.9"/>
		<path style="fill:#FFCCFF;" d="M244.2,26.2c-0.3,0.3-0.7,0.4-1,0.5c2.1,2.7,3.1,7.8,3.4,15.3C246.7,34.8,245.9,29.5,244.2,26.2"/>
		<path style="fill:#FF82A3;" d="M269.1,61.7c1.4-6.9-1.2-9.5-8.1-7.8c-3-10.4-7.6-11.3-13.6-2.5c-0.3,0-0.7-0.1-0.9-0.1
			c-0.3,4.4-0.7,9.2-1.3,14.6c-2.8,21.1-6.6,35.4-11.3,42.8c-5,7.1-10.4,12.3-16.1,15.6c-5.8,3.1-12.6,5.4-20.5,7l-24.6,1.7
			c-8.9-0.5-16.3,2.5-22.2,8.8c-1.8,2.1-5.8,4.5-11.9,7.4c-0.8,0.6-1.6,1.3-2.5,1.9c-0.3,0.3-0.7,0.5-0.9,0.6
			c-0.1,0-0.1,0.1-0.3,0.3c0.3,0,0.4,0,0.7,0c0.1,0,0.3,0,0.4,0c0.1-0.1,0.3-0.1,0.4,0c8.1-0.4,13.4-1.2,15.7-2.6
			c6.7-3.9,14.4-3.8,22.9,0.1l24.1,8.3c7.9,1.6,14.9,1.9,21,1.3c6.2-0.8,12.2-3.6,18.2-8.7c5.9-5.1,11.9-17.2,18.2-36.7
			c6.3-19.3,7.9-32.3,5.1-38.8c0.4,0,0.7,0,0.8,0c1.4-0.3,2.6-1.4,3.5-3.4C267.4,67.4,268.6,64.3,269.1,61.7"/>
		<path style="fill:#FF5368;" d="M246.3,51.5c-7.5-0.5-12.5,4.5-14.9,15.2c-6.2-6.9-11.9-6.1-17,2.2c-7.5-1-11.4,4.9-11.8,17.8
			c-5.4-3.6-8.9-0.8-10.6,8.6c-7.9-4.1-13.8-1-17.7,9.6c-5.1-1-9.2,1.4-12.2,7.1c-6.6-3.1-10.9,0.8-12.8,11.4
			c-1.4,8.3-4.2,13.9-8,16.6c1.6,3,0.7,6.1-2.9,9.2c6.2-2.9,10.1-5.3,11.9-7.4c5.9-6.4,13.2-9.2,22.2-8.8l24.6-1.7
			c8-1.6,14.8-3.9,20.5-7c5.8-3.1,11.1-8.3,16.1-15.6c4.9-7.3,8.5-21.5,11.3-42.8C245.7,60.7,246.2,55.9,246.3,51.5"/>
		<path style="fill:#FF82A3;" d="M30.4,6.5c-5.9-3.9-8.9-3.1-9,2.6c-0.1,2.9,0.4,7,1.7,12.4c0.5,2.2,1.4,3.8,2.6,4.7
			c0.3,0.3,0.7,0.4,1,0.5c-2.1,2.7-3.1,7.8-3.3,15.3c0,1,0,2.2,0,3.5c0,0.3,0,0.6,0,0.9c0,0.9,0,1.8,0.1,2.9c0,0.6,0,1.4,0.1,2.2
			C31.1,51,36.1,56,38.5,66.7c6.2-6.9,11.9-6.1,17,2.2c7.5-1,11.4,4.9,11.8,17.8c5.4-3.6,8.9-0.8,10.6,8.6c7.9-4.1,13.8-1,17.7,9.6
			c5.1-1,9.2,1.4,12.2,7.1c6.6-3.1,10.9,0.8,12.8,11.4c1.4,8.3,4.2,13.9,8,16.6c-1.6,3-0.7,6.1,2.9,9.2c0.8,0.4,1.6,0.8,2.4,1.2
			c0.3,0.1,0.5,0.1,0.7,0.4c0.1-0.1,0.3-0.4,0.4-0.5c-2.8-3.5-4.3-6.5-4.6-8.9c-0.3-1.6,0-2.7,0.8-3.8c0.1-0.1,0.3-0.4,0.4-0.5
			c-2.4-3.1-3.8-7.3-4.5-12.7c-0.3-1.8-0.4-3.8-0.4-5.7v-0.4c0-0.1,0-0.3,0-0.4c-0.1-11.1-3.5-16.5-10.5-16.1
			c-0.4-1.4-0.8-2.6-1.3-3.8c-0.7-1.2-1.2-2.2-1.7-3.1c-0.3-0.4-0.5-0.6-0.8-1c-1.8-2.1-4.1-3.4-6.7-3.8c-2-11.8-7.2-17.2-15.6-16.3
			c0-0.3,0-0.4,0-0.6c0-1.4-0.1-2.7-0.3-3.8c-0.8-6.5-3.7-9.1-8.5-8c0.1-0.4,0.1-0.6,0.1-1c0.3-1.9,0.4-3.8,0.4-5.3
			c0.1-8.7-2.9-13.7-9-15.6c-3.5-10-9-13-16.3-8.8C55.8,19,51.6,12,43.9,9.8C39.7-1.3,35.1-2.3,30.4,6.5"/>
		<path style="fill:#FFCCFF;" d="M26.6,26.7c-0.4-0.1-0.7-0.3-1-0.5c-1.7,3.2-2.5,8.6-2.4,15.9C23.4,34.6,24.6,29.5,26.6,26.7"/>
		<path style="fill:#FFCCFF;" d="M188.6,61.2c-0.1-0.4-0.1-0.6-0.1-1c-4.9-1.3-7.6,1.7-8.3,9.1C181,62.8,183.8,60,188.6,61.2"/>
		<path style="fill:#FFCCFF;" d="M157.7,93.7c1.8-2.1,4.1-3.4,6.7-3.8c2-11.8,7.2-17.2,15.6-16.3c0-0.3,0-0.4,0-0.6
			c-8.4-1-13.6,4.5-15.7,16.7C161.6,90.2,159.5,91.5,157.7,93.7"/>
		<path style="fill:#FFCCFF;" d="M112.3,93.7c-1.8-2.2-3.9-3.5-6.6-4C103.6,77.5,98.4,71.9,90,73c0,0.1,0,0.4,0,0.6
			c8.4-0.9,13.5,4.5,15.6,16.3C108.3,90.4,110.5,91.7,112.3,93.7"/>
		<path style="fill:#FF5368;" d="M107.9,111.9c-3-5.7-6.9-8.2-12.2-7.1c-3.9-10.5-9.8-13.7-17.7-9.6c-1.7-9.5-5.2-12.3-10.6-8.6
			C67,73.8,63.1,67.8,55.6,68.8c-5.2-8.3-10.9-9.1-17-2.2C36,56,31,51.1,23.6,51.5c0.3,4.4,0.7,9.2,1.3,14.6
			c2.8,21.1,6.6,35.4,11.3,42.8c5,7.1,10.4,12.3,16.1,15.6c5.8,3.1,12.6,5.4,20.5,7l24.6,1.7c8.9-0.5,16.3,2.5,22.2,8.8
			c1.8,2.1,5.8,4.5,11.9,7.4c-3.5-3.2-4.5-6.4-2.9-9.2c-3.9-2.7-6.6-8.3-8-16.6C118.7,112.5,114.4,108.8,107.9,111.9"/>
		<path style="fill:#FFCCFF;" d="M138.8,137.3c-0.1,0.3-0.4,0.5-0.5,0.6c0.8,0.9,1.3,1.9,1.3,3.1
			C139.9,139.5,139.6,138.3,138.8,137.3"/>
		<path style="fill:#FFCCFF;" d="M131.6,137.9c-0.1-0.3-0.4-0.5-0.5-0.6c-0.8,1-1,2.3-0.8,3.8C130.3,139.9,130.8,138.9,131.6,137.9"
			/>
		<path style="fill:#A270A3;" d="M135.5,150.6h-0.1c-0.1,0-0.1,0.1-0.4,0.1c0,0,0.1,0.1,0.4,0.1c0.1,0.1,0.3,0.1,0.5,0.1
			C135.8,150.9,135.7,150.8,135.5,150.6"/>
		<path style="fill:#FF82A3;" d="M134.6,151.9L134.6,151.9c0.1-0.1,0.3-0.3,0.4-0.3c-1.3-0.9-2.4-1.8-3.3-2.6
			c-6.2-2.9-10.1-5.3-11.9-7.4c-5.9-6.4-13.2-9.2-22.2-8.8L73,131.1c-8-1.6-14.8-3.9-20.5-7c-5.8-3.1-11.1-8.3-16.1-15.6
			c-4.9-7.3-8.7-21.5-11.3-42.8c-0.7-5.3-1.2-10.2-1.3-14.6c-0.3,0-0.7,0-0.9,0.1c-6.2-8.8-10.8-8-13.6,2.5
			c-6.9-1.7-9.6,0.9-8.1,7.8c0.5,2.6,1.7,5.7,3.5,9.6c0.9,1.9,2.1,3.1,3.5,3.4c0.3,0,0.5,0,0.8,0c-2.9,6.5-1.2,19.4,5.1,38.8
			c6.2,19.4,12.3,31.6,18.2,36.7c6,4.9,12.1,7.9,18.2,8.7c6,0.6,13.1,0.3,21-1.3l24.1-8.3c8.5-4,16.1-4,22.8-0.1
			c2.4,1.4,7.7,2.3,15.9,2.6c0.1-0.1,0.3-0.1,0.4,0C134.3,151.9,134.5,151.9,134.6,151.9"/>
		<path style="fill:#FFCCFF;" d="M81.5,60.2c0,0.4-0.1,0.6-0.1,1c4.9-1.2,7.6,1.6,8.5,8C89.1,61.9,86.4,58.9,81.5,60.2"/>
		<path vector-effect="non-scaling-stroke" style="fill:none;stroke:#FF9900;stroke-linecap:round;stroke-linejoin:round;" d="
			M225.9,9.6c4.5-11,9-12.1,13.8-3.1 M213.3,30.5c0.7-11.7,4.9-18.7,12.6-20.9 M197,39.3c3.5-10,9-13,16.3-8.8 M188,54.9
			c-0.1-8.7,2.9-13.7,9-15.6 M188.5,60.2c-0.3-1.9-0.4-3.8-0.4-5.3 M180,73c0-1.4,0.1-2.7,0.3-3.8 M156.9,94.7
			c0.3-0.4,0.5-0.6,0.8-1 M155.1,97.8c0.7-1.2,1.2-2.2,1.8-3.1 M153.7,101.5c0.4-1.4,0.8-2.6,1.3-3.8 M143.4,117.6
			c0.1-11.1,3.5-16.5,10.4-16.1 M143.4,118c0-0.1,0-0.3,0-0.4 M143.4,118.4V118 M143,124.1c0.3-1.8,0.4-3.8,0.4-5.7 M138.5,136.6
			c2.4-3.1,3.8-7.3,4.5-12.7 M138.8,137.3c-0.1-0.1-0.3-0.4-0.4-0.5 M134.9,150c2.8-3.5,4.3-6.5,4.7-8.9 M130.3,141.1
			c0.3,2.5,1.8,5.4,4.6,8.9 M131.5,136.6c-0.1,0.1-0.1,0.4-0.4,0.5 M126.9,124.1c0.7,5.3,2.1,9.6,4.5,12.7 M126.6,118.4
			c0,2.1,0.1,4,0.4,5.7 M126.6,118v0.4 M126.6,117.6c0,0.1,0,0.3,0,0.4 M116.1,101.5c6.8-0.4,10.4,4.9,10.5,16.1 M114.8,97.8
			c0.5,1.2,0.9,2.3,1.3,3.8 M113.1,94.7c0.5,0.9,1.2,1.8,1.7,3.1 M112.3,93.7c0.3,0.3,0.5,0.6,0.8,1 M89.8,69.2
			c0.1,1.2,0.3,2.5,0.3,3.8 M81.9,54.9c0,1.7-0.1,3.4-0.4,5.3 M73,39.3c6,1.7,9,6.9,9,15.6 M56.7,30.5c7.2-4.1,12.6-1.3,16.3,8.8
			 M44.1,9.6c7.7,2.2,11.9,9.2,12.6,20.9 M30.4,6.5c4.7-8.9,9.3-7.9,13.8,3.1 M21.3,9.1c0.3-5.6,3.3-6.5,9-2.6 M23,21.5
			c-1.3-5.4-2-9.6-1.7-12.4 M25.7,26.2c-1.2-0.9-2.1-2.5-2.6-4.7 M23.3,45.5c0-1.2,0-2.3,0-3.5 M23.3,46.4c0-0.3,0-0.6,0-0.9
			 M23.4,49.3c-0.1-1-0.1-1.9-0.1-2.9 M23.6,51.5c0-0.8-0.1-1.6-0.1-2.2 M22.6,51.6c0.3,0,0.7-0.1,0.9-0.1 M9,54
			c3-10.4,7.6-11.3,13.6-2.5 M0.9,61.7c-1.4-6.9,1.2-9.5,8.1-7.8 M4.4,71.3c-1.8-3.9-3-7-3.5-9.6 M8,74.8c-1.4-0.3-2.6-1.4-3.5-3.4
			 M8.7,74.8c-0.4,0-0.7,0-0.8,0 M13.9,113.6c-6.3-19.3-8-32.3-5.1-38.8 M32,150.3c-5.9-5.1-11.9-17.2-18.2-36.7 M50.2,158.9
			c-6.2-0.8-12.2-3.6-18.2-8.7 M71.2,157.8c-7.9,1.6-14.9,1.9-21,1.3 M95.3,149.5l-24.1,8.3 M118.1,149.3
			c-6.7-3.9-14.3-3.8-22.8,0.1 M134,151.9c-8.1-0.4-13.4-1.2-15.9-2.6 M134.2,151.9c-0.1-0.1-0.3-0.1-0.4,0 M134.6,151.9
			c-0.1,0-0.3,0-0.4,0 M134.7,151.9L134.7,151.9 M135.4,151.9c-0.3,0-0.4,0-0.7,0 M135.7,151.9c-0.1,0-0.1,0-0.4,0 M136,151.9
			c-0.1-0.1-0.3-0.1-0.4,0 M151.8,149.3c-2.4,1.4-7.7,2.3-15.7,2.6 M174.7,149.5c-8.5-4-16.1-4-22.9-0.1 M198.8,157.8l-24.1-8.3
			 M219.8,158.9c-6,0.6-13.1,0.3-21-1.3 M238,150.3c-6,4.9-12.1,7.9-18.2,8.7 M256.1,113.6c-6.2,19.4-12.3,31.6-18.2,36.7
			 M261.3,74.8c2.9,6.5,1.2,19.4-5.1,38.8 M262,74.8c-0.3,0-0.5,0-0.8,0 M265.6,71.3c-0.9,1.9-2.1,3.1-3.5,3.4 M269.1,61.7
			c-0.5,2.6-1.7,5.7-3.5,9.6 M261,54c6.9-1.7,9.6,0.9,8.1,7.8 M247.4,51.6c6.2-8.8,10.6-8,13.6,2.5 M246.3,51.5c0.3,0,0.7,0,0.9,0.1
			 M246.4,49.3c0,0.6,0,1.4-0.1,2.2 M246.6,46.4c0,0.9,0,1.8-0.1,2.9 M246.7,45.5c0,0.3,0,0.6-0.1,0.9 M246.7,42c0,1,0,2.2,0,3.5
			 M246.8,21.5c-0.5,2.2-1.4,3.8-2.6,4.7 M248.7,9.1c0.1,2.9-0.4,7-1.8,12.4 M239.6,6.5c5.9-3.9,8.9-3.1,9,2.6"/>
		<path vector-effect="non-scaling-stroke" style="fill:none;stroke:#FF9900;stroke-linecap:round;stroke-linejoin:round;" d="
			M188.5,60.2c0,0.4,0.1,0.6,0.1,1c-4.9-1.2-7.6,1.6-8.5,8 M180,73c0,0.1,0,0.4,0,0.6c-8.4-0.9-13.5,4.5-15.6,16.3
			c-2.6,0.5-4.9,1.8-6.7,3.8 M138.8,137.3c0.8,1,1,2.3,0.8,3.8 M134.9,150c-0.1,0.1-0.1,0.4-0.4,0.5h-0.1c-0.1,0.1-0.1,0.4-0.4,0.5
			c0.1,0,0.4-0.1,0.5-0.1s0.4-0.1,0.5-0.1c0.1-0.1,0.3-0.1,0.4-0.1c0.1-0.1,0.4-0.3,0.7-0.4c0.8-0.4,1.4-0.8,2.4-1.2
			c3.5-3.2,4.5-6.4,2.9-9.2c3.9-2.7,6.6-8.3,8-16.6c2-10.6,6.3-14.5,12.8-11.4c3-5.7,6.9-8.2,12.2-7.1c3.9-10.5,9.8-13.7,17.7-9.6
			c1.7-9.5,5.2-12.3,10.6-8.6c0.4-12.8,4.3-18.8,11.8-17.8c5.2-8.3,10.9-9.1,17-2.2C234,56,239,51,246.4,51.4 M246.7,42
			c-0.1-7.5-1.3-12.7-3.4-15.3c0.4-0.1,0.7-0.3,1-0.5"/>
		<path vector-effect="non-scaling-stroke" style="fill:none;stroke:#FF9900;stroke-linecap:round;stroke-linejoin:round;" d="
			M246.3,51.5c-0.3,4.4-0.7,9.2-1.3,14.6c-2.8,21.1-6.6,35.4-11.3,42.8c-5,7.1-10.4,12.3-16.1,15.6c-5.8,3.1-12.6,5.4-20.5,7
			l-24.6,1.7c-8.9-0.5-16.3,2.5-22.2,8.8c-1.8,2.1-5.8,4.5-11.9,7.4c-0.8,0.6-1.6,1.3-2.5,1.9c-0.3,0.3-0.7,0.5-0.9,0.6
			c-0.1,0-0.1,0.1-0.3,0.3"/>
		<path vector-effect="non-scaling-stroke" style="fill:none;stroke:#FF9900;stroke-linecap:round;stroke-linejoin:round;" d="
			M25.7,26.2c0.3,0.3,0.7,0.4,1,0.5c-2.1,2.7-3.1,7.8-3.3,15.3 M23.6,51.5C31.1,51,36.1,56,38.5,66.7c6.2-6.9,11.9-6.1,17,2.2
			c7.5-1,11.4,4.9,11.8,17.8c5.4-3.6,8.9-0.8,10.6,8.6c7.9-4.1,13.8-1,17.7,9.6c5.1-1,9.2,1.4,12.2,7.1c6.6-3.1,10.9,0.8,12.8,11.4
			c1.4,8.3,4.2,13.9,8,16.6c-1.6,3-0.7,6.1,2.9,9.2c0.8,0.4,1.6,0.8,2.4,1.2c0.3,0.1,0.5,0.1,0.7,0.4 M130.3,141.1
			c-0.3-1.6,0-2.7,0.8-3.8 M112.3,93.7c-1.8-2.1-4.1-3.4-6.7-3.8c-2-11.8-7.2-17.2-15.6-16.3c0-0.3,0-0.4,0-0.6 M89.8,69.2
			c-0.8-6.5-3.7-9.1-8.5-8c0.1-0.4,0.1-0.6,0.1-1"/>
		<path vector-effect="non-scaling-stroke" style="fill:none;stroke:#FF9900;stroke-linecap:round;stroke-linejoin:round;" d="
			M23.6,51.5c0.3,4.4,0.7,9.2,1.3,14.6c2.8,21.1,6.6,35.4,11.3,42.8c5,7.1,10.4,12.3,16.1,15.6c5.8,3.1,12.6,5.4,20.5,7l24.6,1.7
			c8.9-0.5,16.3,2.5,22.2,8.8c1.8,2.1,5.8,4.5,11.9,7.4"/>
		<path vector-effect="non-scaling-stroke" style="fill:none;stroke:#FF9900;stroke-linecap:round;stroke-linejoin:round;" d="
			M135.5,150.6c0.1,0.1,0.1,0.4,0.4,0.5 M135.4,150.5h0.1"/>
		<path vector-effect="non-scaling-stroke" style="fill:none;stroke:#FF9900;stroke-linecap:round;stroke-linejoin:round;" d="
			M135.1,150.8c0,0,0.1,0.1,0.4,0.1c0.1,0.1,0.3,0.1,0.5,0.1"/>
		<path vector-effect="non-scaling-stroke" style="fill:none;stroke:#FF9900;stroke-linecap:round;stroke-linejoin:round;" d="
			M131.6,149.1c0.9,0.8,2.1,1.7,3.3,2.6"/>
	</g>
</g>
</svg>
