<?xml version="1.0" encoding="utf-8"?>
<!-- Generator: Adobe Illustrator 20.1.0, SVG Export Plug-In . SVG Version: 6.00 Build 0)  -->
<svg version="1.1" id="Layer_1" xmlns="http://www.w3.org/2000/svg" xmlns:xlink="http://www.w3.org/1999/xlink" x="0px" y="0px"
	 viewBox="0 0 181 168.9" style="enable-background:new 0 0 181 168.9;" xml:space="preserve">
<g id="container1">
	<g id="Scene_1_f4_1_">
		<g id="MovieClip_sprite_59">
			<path style="fill:#FFFFFF;" d="M114.9,10.8l3.3,5.6l1.6,5.4c4.1,17.3,9.2,31,15.5,41c6.5,10.1,16.1,22,28.6,35.7l9.8,12.5
				l2.2,3.8c3.8,7.3,5.3,13.9,4.4,19.9c-1.5,10.6-8.1,20.3-19.8,29.2c-8.4,5.8-17.1,4.7-26-3.2c-15.5-7.7-31.2-8.5-47.1-2.7
				c-14.7,5.5-30.2,8.9-46.5,10.2c-13.6,1.1-23.2-5.2-28.9-19.1C2.4,139-1.2,129.7,1.3,121.6c2.5-8.3,8.9-18.5,19.2-30.7
				C30.8,78.6,41,67.6,51,57.7c10.1-9.9,18-20.9,23.9-33.1C64,16.2,63.8,8.4,74.1,1.4C94.2-1.4,107.7,1.7,114.9,10.8"/>
			<path style="fill:#FFCC99;fill-opacity:0.714;" d="M114.9,10.8l3.3,5.6l1.6,5.4c4.1,17.3,9.2,31,15.5,41
				c6.5,10.1,16.1,22,28.6,35.7l9.8,12.5l2.2,3.8c3.8,7.3,5.3,13.9,4.4,19.9c-1.5,10.6-8.1,20.3-19.8,29.2c-8.4,5.8-17.1,4.7-26-3.2
				c-15.5-7.7-31.2-8.5-47.1-2.7c-14.7,5.5-30.2,8.9-46.5,10.2c-13.6,1.1-23.2-5.2-28.9-19.1C2.4,139-1.2,129.7,1.3,121.6
				c2.5-8.3,8.9-18.5,19.2-30.7C30.8,78.6,41,67.6,51,57.7c10.1-9.9,18-20.9,23.9-33.1C64,16.2,63.8,8.4,74.1,1.4
				C94.2-1.4,107.7,1.7,114.9,10.8"/>
			<path vector-effect="non-scaling-stroke" style="fill:none;stroke:#FF9933;stroke-linecap:round;stroke-linejoin:round;" d="
				M118.2,16.5l1.6,5.4c4.1,17.3,9.2,31,15.5,41c6.5,10.1,16.1,22,28.6,35.7l9.8,12.5l2.2,3.8c3.8,7.3,5.3,13.9,4.4,19.9
				c-1.5,10.6-8.1,20.3-19.8,29.2c-8.4,5.8-17.1,4.7-26-3.2c-15.5-7.7-31.2-8.5-47.1-2.7c-14.7,5.5-30.2,8.9-46.5,10.2
				c-13.6,1.1-23.2-5.2-28.9-19.1c-9.6-10.1-13.2-19.4-10.7-27.5c2.5-8.3,8.9-18.5,19.2-30.7C30.8,78.7,41,67.7,51,57.8
				c10.1-9.9,18-20.9,23.9-33.1C64,16.3,63.8,8.5,74.1,1.5c19.9-2.8,33.4,0.2,40.6,9.3L118.2,16.5"/>
			<path vector-effect="non-scaling-stroke" style="fill:none;stroke:#FF9933;stroke-linecap:round;stroke-linejoin:round;" d="
				M140.3,124.7c7.2,14,5.3,25.9-5.7,36 M12.1,149.2c8.8,8.7,17.4,11,25.6,6.8c2.8-1.4,5.6-3.6,8.4-6.6
				c12.1-12.7,26.2-20.3,42.3-23.1c16.9-2.8,34.2-3.3,51.9-1.6"/>
			<path vector-effect="non-scaling-stroke" style="fill:none;stroke:#FF9933;stroke-linecap:round;stroke-linejoin:round;" d="
				M138.5,121l1.9,3.7 M12.1,149.2c5.4,0.2,11.5-2.1,18.3-6.8c13.9-9.6,27.4-19.9,40.5-30.8c13.2-10.9,28.3-19.6,45.4-26l22.1,35.5"
				/>
			<path vector-effect="non-scaling-stroke" style="fill:none;stroke:#FF9933;stroke-linecap:round;stroke-linejoin:round;" d="
				M116.4,85.5l-4-6.8l-12.1-27.3C94.6,41,87,32.6,77.6,26.2l-2.5-1.6"/>
			<path vector-effect="non-scaling-stroke" style="fill:none;stroke:#FF9933;stroke-linecap:round;stroke-linejoin:round;" d="
				M12.1,149.2c1.2-8.6,5.6-18.3,13.1-28.7c9.4-13.2,20.2-25.3,32.4-36.4c12.7-11.3,26.9-22.2,42.8-32.7"/>
		</g>
	</g>
</g>
</svg>
