<?xml version="1.0" encoding="utf-8"?>
<!-- Generator: Adobe Illustrator 20.1.0, SVG Export Plug-In . SVG Version: 6.00 Build 0)  -->
<svg version="1.1" id="Layer_1" xmlns="http://www.w3.org/2000/svg" xmlns:xlink="http://www.w3.org/1999/xlink" x="0px" y="0px"
	 viewBox="0 0 197.9 119.9" style="enable-background:new 0 0 197.9 119.9;" xml:space="preserve">
<g id="container5">
	<g id="Scene_1_f3">
		<path style="fill:#FF82A3;" d="M182.1,6.9c-0.1-4.2-2.3-4.8-6.6-1.8c-3.5-6.7-6.9-5.9-10.1,2.4c-5.7,1.7-8.8,6.8-9.2,15.6
			c-5.3-3.1-9.2-0.9-11.8,6.6c-4.4,1.3-6.6,5.1-6.6,11.7c0,1.2,0.1,2.5,0.3,4.1c0,0.3,0.1,0.5,0.1,0.8c-3.5-0.9-5.6,1.2-6.2,6
			c-0.1,0.9-0.3,1.8-0.3,2.9c0,0.1,0,0.3,0,0.5c-6.1-0.7-10,3.4-11.4,12.2c-1.9,0.4-3.6,1.3-4.9,2.9c-0.1,0.3-0.4,0.5-0.6,0.8
			c-0.4,0.7-0.9,1.4-1.3,2.4c-0.4,0.8-0.6,1.7-1,2.8c-5.1-0.3-7.5,3.7-7.6,12.1c0,0.1,0,0.1,0,0.3v0.3c0,1.6-0.1,3-0.3,4.3
			c-0.5,3.9-1.6,7.1-3.4,9.4c0.1,0.1,0.1,0.3,0.3,0.4c0.5,0.8,0.8,1.7,0.5,2.9c-0.3,1.8-1.4,4.1-3.4,6.7c-0.1,0.1-0.1,0.3-0.3,0.4
			h-0.1c-0.1,0.1-0.1,0.3-0.3,0.4c0.1,0,0.3-0.1,0.4-0.1s0.3-0.1,0.4-0.1s0.1-0.1,0.3-0.1c0.1-0.1,0.3-0.1,0.5-0.3
			c0.5-0.3,1.2-0.5,1.7-0.8c2.6-2.4,3.4-4.7,2.2-6.9c2.8-2.1,4.8-6.3,5.8-12.4c1.4-8,4.5-10.9,9.3-8.5c2.2-4.3,5.2-6.2,8.8-5.4
			c2.8-7.9,7.3-10.2,13.1-7.1c1.2-7.1,3.8-9.2,7.6-6.4c0.3-9.6,3.1-14,8.7-13.2c3.8-6.2,7.9-6.7,12.4-1.7c1.8-8,5.6-11.7,11-11.3
			c0-0.5,0-1,0-1.7c0-0.8,0.1-1.4,0.1-2.1c0-0.3,0-0.4,0-0.7c0-0.9,0-1.8,0-2.6c-0.1-5.6-0.9-9.4-2.5-11.5c0.3-0.1,0.5-0.3,0.6-0.4
			c0.9-0.7,1.6-1.8,1.9-3.4C181.8,12.2,182.2,9,182.1,6.9"/>
		<path style="fill:#FF82A3;" d="M197.1,46.4c1-5.1-0.9-7.1-6-5.9c-2.2-7.7-5.6-8.4-10.1-1.8c-0.3,0-0.4,0-0.6,0
			c-0.1,3.3-0.5,6.9-1,11c-1.9,15.9-4.8,26.5-8.3,32c-3.6,5.4-7.5,9.2-11.8,11.7c-4.1,2.4-9.2,4.1-15,5.2l-18,1.2
			c-6.5-0.4-11.9,1.8-16.2,6.6c-1.3,1.6-4.3,3.4-8.8,5.6c-0.5,0.5-1.2,0.9-1.8,1.4c-0.3,0.1-0.4,0.4-0.6,0.5c-0.1,0-0.1,0.1-0.1,0.1
			c0.1,0,0.3,0,0.5,0c0.1,0,0.1,0,0.3,0c0.1,0,0.1,0,0.3,0c6-0.3,9.8-0.9,11.7-2c4.9-2.9,10.5-2.9,16.7,0.1l17.6,6.2
			c5.8,1.2,10.9,1.4,15.3,0.9c4.5-0.5,8.9-2.8,13.3-6.4c4.3-3.8,8.8-13,13.3-27.5s5.8-24.2,3.8-29c0.3,0,0.5,0,0.6-0.1
			c1-0.3,1.9-1,2.6-2.5C195.8,50.7,196.6,48.2,197.1,46.4"/>
		<path style="fill:#FFCCFF;" d="M178.2,20.2c1.6,2.1,2.3,5.9,2.5,11.5c0-5.5-0.5-9.4-1.8-11.9C178.6,19.9,178.5,20.1,178.2,20.2"/>
		<path style="fill:#FF5368;" d="M180.4,38.7c-5.4-0.4-9.1,3.4-11,11.3c-4.5-5.1-8.7-4.6-12.4,1.7c-5.6-0.8-8.4,3.7-8.7,13.2
			c-3.9-2.8-6.5-0.7-7.6,6.4c-5.8-3.1-10.1-0.8-13.1,7.1c-3.8-0.8-6.6,1-8.8,5.4c-4.8-2.4-7.9,0.5-9.3,8.5c-1,6.2-3.1,10.4-5.8,12.4
			c1.2,2.2,0.4,4.6-2.2,6.9c4.5-2.2,7.4-4.1,8.8-5.6c4.3-4.7,9.7-6.9,16.2-6.6l18-1.2c5.8-1.2,10.9-3,15-5.2
			c4.3-2.4,8.2-6.3,11.8-11.7c3.5-5.5,6.3-16.1,8.3-32C179.9,45.6,180.3,41.9,180.4,38.7"/>
		<path style="fill:#FF82A3;" d="M22.3,5.1c-4.3-2.9-6.5-2.4-6.6,1.8C15.6,9,16,12.1,17,16.2c0.4,1.7,1,2.8,1.9,3.4
			c0.3,0.1,0.5,0.3,0.8,0.4c-1.6,2.1-2.3,5.9-2.5,11.5c0,0.8,0,1.7,0,2.6c0,0.3,0,0.4,0.1,0.7c0,0.7,0,1.4,0,2.1c0,0.5,0,1,0.1,1.7
			c5.4-0.4,9.1,3.4,10.9,11.3c4.5-5.1,8.7-4.6,12.4,1.7c5.6-0.8,8.4,3.7,8.7,13.2c3.9-2.8,6.5-0.7,7.8,6.4c5.8-3.1,10.1-0.8,13,7.1
			c3.8-0.8,6.6,1,8.9,5.4c4.8-2.4,7.9,0.5,9.3,8.5c1,6.2,3.1,10.4,6,12.4c-1.2,2.2-0.5,4.6,2.1,6.9c0.5,0.3,1.2,0.5,1.7,0.8
			c0.1,0.1,0.4,0.1,0.5,0.3c0.1-0.1,0.1-0.3,0.3-0.4c-2.1-2.6-3.2-4.8-3.4-6.7c-0.1-1.2,0-2.1,0.6-2.9c0.1-0.1,0.1-0.3,0.3-0.4
			c-1.7-2.4-2.8-5.5-3.2-9.4C93.2,91.5,93,90,93,88.5v-0.3c0-0.1,0-0.1,0-0.3c-0.1-8.2-2.6-12.2-7.6-11.9c-0.3-1-0.6-2-1-2.8
			c-0.4-0.9-0.9-1.7-1.3-2.4c-0.3-0.3-0.4-0.5-0.6-0.8c-1.3-1.6-3-2.5-4.9-2.9c-1.4-8.8-5.3-12.8-11.4-12.2c0-0.1,0-0.3,0-0.5
			c0-1,0-2-0.1-2.9c-0.6-4.8-2.7-6.8-6.2-6c0-0.3,0.1-0.5,0.1-0.8c0.1-1.4,0.3-2.8,0.3-4.1c0.1-6.4-2.1-10.4-6.5-11.7
			c-2.6-7.5-6.6-9.7-11.8-6.6c-0.5-8.8-3.6-14-9.3-15.6C29.2-0.9,25.8-1.6,22.3,5.1"/>
		<path style="fill:#FFCCFF;" d="M138.2,45.9c0-0.3-0.1-0.5-0.1-0.8c-3.5-0.9-5.6,1.3-6,6.7C132.6,47,134.7,45.1,138.2,45.9"/>
		<path style="fill:#FFCCFF;" d="M131.7,55.2c0-0.1,0-0.3,0-0.5c-6.1-0.8-10,3.4-11.4,12.6c-1.9,0.4-3.5,1.4-4.8,3
			c1.3-1.6,3-2.5,4.9-2.9C121.9,58.6,125.6,54.5,131.7,55.2"/>
		<path style="fill:#FFCCFF;" d="M59.9,45.2c0,0.3-0.1,0.5-0.1,0.8c3.5-0.9,5.6,1.2,6.2,6C65.3,46.5,63.4,44.3,59.9,45.2"/>
		<path style="fill:#FFCCFF;" d="M66.1,54.8c0,0.1,0,0.3,0,0.5c6.1-0.7,10,3.4,11.4,12.2c1.9,0.4,3.6,1.3,4.9,2.9
			c-1.3-1.6-2.8-2.6-4.8-3C75.9,58.2,72.2,54,66.1,54.8"/>
		<path style="fill:#FF5368;" d="M70.2,78.5c-2.8-7.9-7.3-10.2-13-7.1c-1.2-7.1-3.8-9.2-7.8-6.4c-0.3-9.6-3.1-14-8.7-13.2
			c-3.8-6.2-8-6.7-12.4-1.7c-1.8-8-5.4-11.7-10.9-11.3c0.1,3.3,0.5,6.9,1,11c1.9,15.9,4.8,26.5,8.3,32c3.6,5.4,7.5,9.2,11.8,11.7
			c4.1,2.4,9.2,4.1,15,5.2l18,1.2c6.5-0.4,11.9,1.8,16.2,6.6c1.3,1.6,4.3,3.4,8.8,5.6c-2.6-2.4-3.4-4.7-2.1-6.9
			c-2.8-2.1-4.8-6.3-6-12.4c-1.4-8-4.5-10.9-9.3-8.5C76.8,79.5,74,77.7,70.2,78.5"/>
		<path style="fill:#FFCCFF;" d="M101.8,102.9c-0.1,0.1-0.3,0.4-0.4,0.5c0.6,0.7,0.9,1.4,1,2.4C102.5,104.6,102.3,103.7,101.8,102.9
			"/>
		<path style="fill:#FFCCFF;" d="M96.5,103.4c-0.1-0.1-0.3-0.4-0.4-0.5c-0.5,0.8-0.8,1.7-0.6,2.9C95.5,104.8,95.9,104,96.5,103.4"/>
		<path style="fill:#FF82A3;" d="M99.2,112.8c-0.1,0-0.1,0.1-0.3,0.1c0,0,0.1,0.1,0.3,0.1s0.3,0.1,0.4,0.1
			C99.5,113.1,99.4,113.1,99.2,112.8L99.2,112.8"/>
		<path style="fill:#FF82A3;" d="M96.5,111.8c-4.5-2.2-7.4-4.1-8.8-5.6c-4.3-4.7-9.7-6.9-16.2-6.6l-18-1.2c-5.8-1.2-10.9-3-15-5.2
			c-4.3-2.4-8.2-6.3-11.8-11.7c-3.5-5.5-6.3-16.1-8.3-32c-0.5-4.1-0.9-7.7-1-11c-0.3,0-0.4,0-0.6,0c-4.5-6.6-7.8-6-10.1,1.8
			c-5.1-1.2-7,0.8-6,5.9c0.4,2,1.3,4.3,2.6,7.2c0.6,1.4,1.6,2.4,2.6,2.5C6,55.9,6.3,56,6.5,56c-2.1,4.8-0.9,14.5,3.8,29
			c4.5,14.5,8.9,23.7,13.3,27.5c4.4,3.7,8.8,5.9,13.3,6.4c4.4,0.5,9.6,0.3,15.4-0.9l17.6-6.2c6.2-3,11.8-3,16.7-0.1
			c1.8,1,5.6,1.7,11.5,2c0.1,0,0.1,0,0.3,0s0.1,0,0.3,0l0,0c0-0.1,0.1-0.1,0.1-0.1c-0.3-0.1-0.4-0.3-0.6-0.5
			C97.5,112.7,97,112.3,96.5,111.8"/>
		<path style="fill:#FFCCFF;" d="M18.9,19.7c-1.2,2.5-1.8,6.4-1.8,11.9c0.1-5.6,0.9-9.4,2.5-11.5C19.4,20.1,19.2,19.9,18.9,19.7"/>
		<path vector-effect="non-scaling-stroke" style="fill:none;stroke:#FF9900;stroke-linecap:round;stroke-linejoin:round;" d="
			M165.4,7.3c3.2-8.3,6.6-9,10.1-2.4 M156.2,22.9c0.5-8.8,3.6-14,9.2-15.6 M144.3,29.5c2.6-7.5,6.6-9.7,11.8-6.6 M137.7,41.1
			c-0.1-6.4,2.1-10.4,6.6-11.7 M138.1,45.2c-0.1-1.4-0.3-2.8-0.3-4.1 M131.7,54.8c0-1,0.1-2,0.3-2.9 M114.9,71
			c0.3-0.3,0.4-0.5,0.6-0.8 M113.6,73.4c0.4-0.9,0.9-1.7,1.3-2.4 M112.7,76.1c0.3-1,0.6-2,1-2.8 M105.1,88.2
			c0.1-8.4,2.6-12.3,7.6-12.1 M105.1,88.5c0-0.1,0-0.1,0-0.3 M105.1,88.7v-0.2 M104.8,93c0.1-1.3,0.3-2.8,0.3-4.3 M101.4,102.5
			c1.7-2.4,2.8-5.5,3.4-9.4 M101.8,102.9c-0.1-0.1-0.1-0.3-0.3-0.4 M98.8,112.4c2.1-2.6,3.2-4.8,3.4-6.7 M95.5,105.7
			c0.3,1.8,1.4,4.1,3.4,6.7 M96.2,102.5c-0.1,0.1-0.1,0.3-0.3,0.4 M93,93c0.5,3.9,1.6,7.1,3.2,9.4 M92.7,88.7c0,1.6,0.1,3,0.3,4.3
			 M92.7,88.5v0.3 M92.7,88.2c0,0.1,0,0.1,0,0.3 M85.1,76.1c5.1-0.3,7.5,3.7,7.6,12.1 M84.2,73.4c0.4,0.8,0.6,1.7,1,2.8 M82.9,71
			c0.4,0.7,0.9,1.4,1.3,2.4 M82.3,70.2c0.1,0.3,0.4,0.5,0.6,0.8 M65.8,51.9c0.1,0.9,0.1,1.8,0.1,2.9 M60,41.1c0,1.2-0.1,2.5-0.3,4.1
			 M53.5,29.5c4.4,1.3,6.6,5.1,6.5,11.7 M41.7,22.9c5.3-3.1,9.2-0.9,11.8,6.6 M32.4,7.3c5.7,1.7,8.8,6.8,9.3,15.6 M22.3,5.1
			c3.5-6.7,6.9-5.9,10.1,2.4 M15.7,6.9c0.1-4.2,2.5-4.8,6.6-1.8 M17,16.3c-1-4.1-1.4-7.2-1.3-9.3 M18.9,19.7
			C18,19,17.3,17.9,17,16.3 M17.1,34.2c0-0.9,0-1.8,0-2.6 M17.2,34.9c0-0.3-0.1-0.4-0.1-0.7 M17.2,37.1c0-0.8,0-1.4,0-2.1
			 M17.4,38.7c0-0.5-0.1-1-0.1-1.7 M16.7,38.7c0.3,0,0.4,0,0.6,0 M6.8,40.5c2.2-7.7,5.6-8.4,10.1-1.8 M0.8,46.4
			c-1-5.1,0.9-7.1,6-5.9 M3.4,53.6c-1.3-2.9-2.2-5.2-2.6-7.2 M6,56.1c-1-0.3-1.9-1-2.6-2.5 M6.6,56.2c-0.3,0-0.5,0-0.6-0.1
			 M10.3,85.2c-4.6-14.6-5.9-24.3-3.8-29 M23.6,112.7c-4.3-3.8-8.8-13-13.3-27.5 M36.9,119.1c-4.5-0.5-8.9-2.8-13.3-6.4 M52.2,118.2
			c-5.8,1.2-10.9,1.4-15.4,0.9 M69.8,112l-17.6,6.2 M86.5,111.9C81.6,109,76,109,69.8,112 M98.1,113.9c-6-0.3-9.8-0.9-11.5-2
			 M98.4,113.9c-0.1,0-0.1,0-0.3,0 M98.7,113.9c-0.1,0-0.1,0-0.3,0 M98.7,113.9L98.7,113.9 M99.2,113.9c-0.1,0-0.3,0-0.5,0
			 M99.4,113.9c-0.1,0-0.1,0-0.3,0 M99.7,113.9c-0.1,0-0.1,0-0.3,0 M111.3,111.9c-1.8,1-5.7,1.7-11.7,2 M128,112
			c-6.2-3-11.8-3-16.7-0.1 M145.6,118.2L128,112 M160.9,119.1c-4.4,0.5-9.6,0.3-15.3-0.9 M174.3,112.7c-4.4,3.7-8.8,5.9-13.3,6.4
			 M187.5,85.2c-4.5,14.5-8.9,23.7-13.3,27.5 M191.3,56.2c2.1,4.8,0.9,14.5-3.8,29 M192,56.1c-0.1,0-0.4,0.1-0.6,0.1 M194.5,53.6
			c-0.6,1.4-1.6,2.4-2.6,2.5 M197.1,46.4c-0.4,2-1.3,4.3-2.6,7.2 M191.2,40.5c5.1-1.2,7,0.8,6,5.9 M181.1,38.7
			c4.5-6.6,7.8-6,10.1,1.8 M180.4,38.7c0.3,0,0.4,0,0.6,0 M180.4,37.1c0,0.5,0,1,0,1.7 M180.6,34.9c0,0.7,0,1.4-0.1,2.1 M180.7,34.2
			c0,0.3,0,0.4,0,0.7 M180.7,31.6c0,0.8,0,1.7,0,2.6 M180.8,16.3c-0.4,1.7-1,2.8-1.9,3.4 M182.1,6.9c0.1,2.1-0.3,5.2-1.3,9.3
			 M175.5,5.1c4.3-2.9,6.5-2.4,6.6,1.8"/>
		<path vector-effect="non-scaling-stroke" style="fill:none;stroke:#FF9900;stroke-linecap:round;stroke-linejoin:round;" d="
			M138.1,45.2c0,0.3,0.1,0.5,0.1,0.8c-3.5-0.9-5.6,1.2-6.2,6 M131.7,54.8c0,0.1,0,0.3,0,0.5c-6.1-0.7-10,3.4-11.4,12.2
			c-1.9,0.4-3.6,1.3-4.9,2.9 M101.8,102.9c0.5,0.8,0.8,1.7,0.5,2.9 M98.8,112.4c-0.1,0.1-0.1,0.3-0.3,0.4h-0.1
			c-0.1,0.1-0.1,0.3-0.3,0.4c0.1,0,0.3-0.1,0.4-0.1s0.3-0.1,0.4-0.1s0.1-0.1,0.3-0.1c0.1-0.1,0.3-0.1,0.5-0.3
			c0.5-0.3,1.2-0.5,1.7-0.8c2.6-2.4,3.4-4.7,2.2-6.9c2.8-2.1,4.8-6.3,5.8-12.4c1.4-8,4.5-10.9,9.3-8.5c2.2-4.3,5.2-6.2,8.8-5.4
			c2.8-7.9,7.3-10.2,13.1-7.1c1.2-7.1,3.8-9.2,7.6-6.4c0.3-9.6,3.1-14,8.7-13.2c3.8-6.2,7.9-6.7,12.4-1.7c1.8-8,5.6-11.7,11-11.3
			 M180.7,31.6c-0.1-5.6-0.9-9.4-2.5-11.5c0.3-0.1,0.5-0.3,0.6-0.4"/>
		<path vector-effect="non-scaling-stroke" style="fill:none;stroke:#FF9900;stroke-linecap:round;stroke-linejoin:round;" d="
			M180.4,38.7c-0.1,3.3-0.5,6.9-1,11c-1.9,15.9-4.8,26.5-8.3,32c-3.6,5.4-7.5,9.2-11.8,11.7c-4.1,2.4-9.2,4.1-15,5.2l-18,1.2
			c-6.5-0.4-11.9,1.8-16.2,6.6c-1.3,1.6-4.3,3.4-8.8,5.6c-0.5,0.5-1.2,0.9-1.8,1.4c-0.3,0.1-0.4,0.4-0.6,0.5c-0.1,0-0.1,0.1-0.1,0.1
			"/>
		<path vector-effect="non-scaling-stroke" style="fill:none;stroke:#FF9900;stroke-linecap:round;stroke-linejoin:round;" d="
			M18.9,19.7c0.3,0.1,0.5,0.3,0.8,0.4c-1.6,2.1-2.3,5.9-2.5,11.5 M17.4,38.7c5.4-0.4,9.1,3.4,10.9,11.3c4.5-5.1,8.7-4.6,12.4,1.7
			c5.6-0.8,8.4,3.7,8.7,13.2c3.9-2.8,6.5-0.7,7.8,6.4c5.8-3.1,10.1-0.8,13,7.1c3.8-0.8,6.6,1,8.9,5.4c4.8-2.4,7.9,0.5,9.3,8.5
			c1,6.2,3.1,10.4,6,12.4c-1.2,2.2-0.5,4.6,2.1,6.9c0.5,0.3,1.2,0.5,1.7,0.8c0.1,0.1,0.4,0.1,0.5,0.3 M95.5,105.7
			c-0.1-1.2,0-2.1,0.6-2.9 M82.3,70.2c-1.3-1.6-3-2.5-4.9-2.9C76,58.5,72.1,54.5,66,55.1c0-0.1,0-0.3,0-0.5 M65.8,51.9
			c-0.6-4.8-2.7-6.8-6.2-6c0-0.3,0.1-0.5,0.1-0.8"/>
		<path vector-effect="non-scaling-stroke" style="fill:none;stroke:#FF9900;stroke-linecap:round;stroke-linejoin:round;" d="
			M17.4,38.7c0.1,3.3,0.5,6.9,1,11c1.9,15.9,4.8,26.5,8.3,32c3.6,5.4,7.5,9.2,11.8,11.7c4.1,2.4,9.2,4.1,15,5.2l18,1.2
			c6.5-0.4,11.9,1.8,16.2,6.6c1.3,1.6,4.3,3.4,8.8,5.6"/>
		<path vector-effect="non-scaling-stroke" style="fill:none;stroke:#FF9900;stroke-linecap:round;stroke-linejoin:round;" d="
			M96.5,111.8c0.5,0.5,1.2,0.9,1.8,1.4"/>
		<path vector-effect="non-scaling-stroke" style="fill:none;stroke:#FF9900;stroke-linecap:round;stroke-linejoin:round;" d="
			M99,113c0,0,0.1,0.1,0.3,0.1c0.1,0,0.3,0.1,0.4,0.1c-0.1-0.1-0.1-0.1-0.3-0.4h-0.1"/>
		<path vector-effect="non-scaling-stroke" style="fill:none;stroke:#FF9900;stroke-linecap:round;stroke-linejoin:round;" d="
			M98.8,113.7c-0.3-0.1-0.4-0.3-0.6-0.5"/>
	</g>
</g>
</svg>
