<svg id="Layer_1" data-name="Layer 1" xmlns="http://www.w3.org/2000/svg" viewBox="0 0 683.1 23.7"><defs><style>.cls-1{fill:#ebebeb;}.cls-2{fill:#d6d6d6;}.cls-3{fill:#40b8b4;}</style></defs><title>Method banner_v1</title><rect class="cls-1" x="0.5" width="682.6" height="23.73"/><path class="cls-2" d="M446.5,367l-.2,1.8h.7l.2-1.8C447.2,366.6,446.5,366.6,446.5,367Z" transform="translate(-341.4 -345.1)"/><path class="cls-2" d="M462.1,368.8c0-.2,0-.4,0-.6h-.1l-.5.5Z" transform="translate(-341.4 -345.1)"/><path class="cls-2" d="M456.2,346.3l-1.1.8-.9.4q-.7.3-.9-.4c.3-.3-.2-.8-.5-.5s-.2,1.4.5,1.7,2.7-.8,3.4-1.4a3.3,3.3,0,0,0,1-1.7h-1v.5Z" transform="translate(-341.4 -345.1)"/><path class="cls-2" d="M462.7,368.2h.1a35.5,35.5,0,0,1,8.5-23h-.9a36.2,36.2,0,0,0-8.2,23h.1A.3.3,0,0,1,462.7,368.2Z" transform="translate(-341.4 -345.1)"/><path class="cls-2" d="M449.4,368.8c.7-.9,1-1.8.4-2.6s-.8.1-.5.5-.2,1.3-.9,2.1Z" transform="translate(-341.4 -345.1)"/><path class="cls-2" d="M462.9,368.8l.4-.2-.5-.4c0,.2,0,.4,0,.6Z" transform="translate(-341.4 -345.1)"/><path class="cls-2" d="M464.8,368.8l30-12.6v-.8l-31.4,13.2v.2Z" transform="translate(-341.4 -345.1)"/><path class="cls-2" d="M910.9,345.1h-1.4l-.6.3v-.3h-.8v.7h-.2c-.4.2-.2.6.2.6a4.4,4.4,0,0,0,.1,1.1c.5,2.1,4,.4,5.1,0s.3-.8-.2-.7l-2.9.9c-1.4.4-1.5-.7-1.4-1.6Z" transform="translate(-341.4 -345.1)"/><path class="cls-2" d="M925.3,345.1h-.1l-1.3,1.1-1.7-.7a2.9,2.9,0,0,1,0-.5h-.8a2.2,2.2,0,0,0,.4,1.7c1.2,1.4,2.9-.1,3.8-1.1h.1a3.6,3.6,0,0,0,.1.9c.5,2,2.9.4,3.6-.4s-.2-.9-.5-.5a2.6,2.6,0,0,1-1.7,1.1c-.9.1-.8-.8-.7-1.6Z" transform="translate(-341.4 -345.1)"/><path class="cls-2" d="M906.7,359.4l-.6.4c-.3.2,0,.6.3.6a10.2,10.2,0,0,0,.1,4.3.4.4,0,0,0,.7,0l2-8.4c.4-1.9.6-3.6,3.1-3.6h20.4c1.2,0,1,.4.8,1.5s.7.5.7,0l.2-1.8a.4.4,0,0,0-.4-.4H913.6c-2.2,0-4-.1-4.8,2.3s-1.4,5.5-2,8.2a9.6,9.6,0,0,1,.4-2.7A.4.4,0,0,0,906.7,359.4Z" transform="translate(-341.4 -345.1)"/><path class="cls-2" d="M495.4,351.7h-.7q0,1.9.1,3.7l.7-.3Q495.5,353.4,495.4,351.7Z" transform="translate(-341.4 -345.1)"/><path class="cls-2" d="M519.1,347.6l2.7-2.5h-.7l-.7.3-1.8,1.7Z" transform="translate(-341.4 -345.1)"/><path class="cls-2" d="M935,367.9l-.2.9h.7v-.7C935.8,367.7,935.1,367.5,935,367.9Z" transform="translate(-341.4 -345.1)"/><path class="cls-2" d="M520.4,345.4l.3-.3h-1.5l-23.8,10v.8Z" transform="translate(-341.4 -345.1)"/><path class="cls-2" d="M494.8,358.5h.7q0-1.3,0-2.6l-.7.3Q494.8,357.4,494.8,358.5Z" transform="translate(-341.4 -345.1)"/><path class="cls-2" d="M888.3,362.4c.3-.3-.2-.9-.5-.5a26.7,26.7,0,0,0-4.7,6.9h.8A25.8,25.8,0,0,1,888.3,362.4Z" transform="translate(-341.4 -345.1)"/><path class="cls-2" d="M872.3,351.2a.4.4,0,0,0-.6.4c.6,1,1.7.6,2.3,0h.1a1.7,1.7,0,0,0,.6.9c1.2,1,2.3-.8,2.6-1.7s-.5-.6-.7-.2a3.4,3.4,0,0,1-.6,1.1q-1.2.4-1.2-.5v-.4l.7-1c.4-.7.7-2,1.5-2.3s.3-.8-.2-.7a2.5,2.5,0,0,0-1.4,1.5l-.7,1.2-.2-2.6a.4.4,0,0,0-.3-.3h-.4c-.5-.1-.7.6-.2.7h.2l.2,3.3C873.4,351.3,872.7,351.9,872.3,351.2Z" transform="translate(-341.4 -345.1)"/><path class="cls-2" d="M885.2,349.7a.4.4,0,0,0,0-.7h-7a.4.4,0,0,0,0,.7Z" transform="translate(-341.4 -345.1)"/><path class="cls-2" d="M896.1,345.6c-.4.2-.1.8.4.6l1-.6-1.3,3.2c-.2.4.5.6.7.2l1.6-3.9H897Z" transform="translate(-341.4 -345.1)"/><path class="cls-2" d="M668.1,365.3a19.4,19.4,0,0,1,.4-3.2q.1-1.3,1.8.3a3.7,3.7,0,0,1-1,2.6c-.3.4.2.9.5.5s1.7-3,.9-4.3-1.9-1.4-2.7-.1-.8,4.9-.6,6.8v.9h.8A35.1,35.1,0,0,1,668.1,365.3Z" transform="translate(-341.4 -345.1)"/><path class="cls-2" d="M848.9,345.4c-.3.3.2.9.5.5l.4-.3h.3q.4-.2.4.4l-.7,1a6.4,6.4,0,0,1-1.8,1.4.4.4,0,0,0,.3.7,6.1,6.1,0,0,1,2.9-.1.4.4,0,0,0,.4-.5h-.1a.4.4,0,0,0-.5-.1h-1.3a4.9,4.9,0,0,0,1.6-2.2.7.7,0,0,0-.2-.7h-1.9Z" transform="translate(-341.4 -345.1)"/><path class="cls-2" d="M888.1,350.6c-.5.1-.5.8,0,.7l2.8-.3c.5-.1.5-.8,0-.7Z" transform="translate(-341.4 -345.1)"/><path class="cls-2" d="M491.2,366.6a1.7,1.7,0,0,0,2.6-.6,3.4,3.4,0,0,0-.4-3.6,1.5,1.5,0,0,0-2.5.3.4.4,0,0,0,0,.3C490.4,364.2,490.1,365.6,491.2,366.6Zm.4-3.5a.3.3,0,0,0,0-.2c.5-.8,1.5.2,1.6.9a2.4,2.4,0,0,1-.3,2.2c-.7.8-1.5,0-1.7-.7A3.7,3.7,0,0,1,491.6,363.1Z" transform="translate(-341.4 -345.1)"/><path class="cls-2" d="M890.9,349.1a7.6,7.6,0,0,0-3.3,0c-.5.1-.3.8.2.7a6.7,6.7,0,0,1,2.9,0C891.2,349.9,891.4,349.2,890.9,349.1Z" transform="translate(-341.4 -345.1)"/><path class="cls-2" d="M516.3,349.3l-4.9,4.7.6.4,4.8-4.6Z" transform="translate(-341.4 -345.1)"/><path class="cls-2" d="M509.8,356.5l-.5-.5-4.8,4.6.5.5Z" transform="translate(-341.4 -345.1)"/><path class="cls-2" d="M501.9,364.1l-.5-.5-5.2,4.9h-.6c0-2.1-.1-4.2-.1-6.4h-.7c0,2.1.1,4.2.1,6.4h-3.6v.3h5.6Z" transform="translate(-341.4 -345.1)"/><path class="cls-2" d="M870.8,364.5a.3.3,0,0,0-.2-.2.7.7,0,0,0-.7.2.4.4,0,0,0,.2.6,2.1,2.1,0,0,0,2.9-1.6c0-.4-.1-1.1-.6-1.3h-.1a1.8,1.8,0,0,0,.1-1.5c-.4-1-1.5-.2-1.8.4a.4.4,0,0,0,.6.4.5.5,0,0,1,.6-.3,1.6,1.6,0,0,1-.1.5,2.6,2.6,0,0,1-.5.8l-.4.4h-.1c-.3.3.3.7.6.4l.4-.4a.7.7,0,0,1,.6.2,1.3,1.3,0,0,1-.2.7A1.2,1.2,0,0,1,870.8,364.5Z" transform="translate(-341.4 -345.1)"/><path class="cls-2" d="M865.1,368.7h1.9c.5-1,.9-2.1,1.3-3l.2-.5c.1-.4-.5-.7-.7-.3l-.2.5c-.7.9-2.4-1-3.2-.3a.7.7,0,0,0,.1,1.3c.4.2.8-.4.4-.6a4.7,4.7,0,0,0,2.3.6l-1.1,2.3Z" transform="translate(-341.4 -345.1)"/><path class="cls-2" d="M494.6,348.3h.7c0-1.1-.1-2.1-.1-3.2h-.7C494.5,346.1,494.6,347.2,494.6,348.3Z" transform="translate(-341.4 -345.1)"/><path class="cls-2" d="M860.8,361.3a1.7,1.7,0,0,0-2.1-.4,3,3,0,0,0-1.4,2.4c-.1.5.7.5.7,0a2,2,0,0,1,1.2-1.8q1.1-.2,1,1.1a2.5,2.5,0,0,1-.7.7l-2.9,2.3a.4.4,0,0,0,.3.6l4.3-.2c.5,0,.5-.7,0-.7l-3.2.2,2.5-2A1.5,1.5,0,0,0,860.8,361.3Z" transform="translate(-341.4 -345.1)"/><path class="cls-2" d="M879.7,357.9a2.1,2.1,0,0,0,1.9-3.2,7,7,0,0,0-.8-1.1h0l2.1-2.3a.4.4,0,0,0,0-.5c-1.2-1-2.6-.3-3.1,1.1a3,3,0,0,0,.5,2.4c.5.9,1.3,1.3.7,2.5s-4.2-1.1-1.5-2.3c.4-.2.2-.9-.2-.7C877.2,354.5,877.2,357.6,879.7,357.9Zm.8-6.1q.7-1.4,1.6-.9l-1.6,1.8A2.4,2.4,0,0,1,880.5,351.8Z" transform="translate(-341.4 -345.1)"/><path class="cls-2" d="M341.9,360.8v.8l.7-.6a2,2,0,0,0,0-2.8,1.5,1.5,0,0,0-.7-.4v.8h0a1.2,1.2,0,0,1,.3,1.8Z" transform="translate(-341.4 -345.1)"/><path class="cls-2" d="M1024.5,358.1h-.3l-.2.2a.3.3,0,0,0-.1.3,2.4,2.4,0,0,0,.2,2.7l.4.3v-1h0a1.5,1.5,0,0,1,0-1.3Z" transform="translate(-341.4 -345.1)"/><path class="cls-2" d="M936,345.2c-.6.6-1.3,1.3-2.2.9a1.3,1.3,0,0,1-.6-1h-.7a2.2,2.2,0,0,0,1.1,1.7c1.1.5,2.2-.4,2.9-1.1a.4.4,0,0,0-.1-.6H936Z" transform="translate(-341.4 -345.1)"/><path class="cls-2" d="M1017.3,345.1v8.6l-.9-.4a4.7,4.7,0,0,1,.2-1.1.4.4,0,0,0-.7-.2v.6c-1.6-2.5-3.1-5.1-4.7-7.5h-.8c1.9,2.9,3.7,5.9,5.6,8.9a1.4,1.4,0,0,0,.5.8l1,1.5h-12.5a1.1,1.1,0,0,0-.5-.4h-.1v-4.3h-.4v4.3h-.3l-.2.3H979.3q2.9-3,6-5.7c2-1.8,4.3-3.7,6.6-5.5h-1.1a122.7,122.7,0,0,0-12.1,10.7v-1.7h-.4v2l-.2.2H952.3a71.5,71.5,0,0,1,5.5-11.2H957l-1.9,3.3a74.5,74.5,0,0,0-3.3,7.1h-.2v.8h-8.9v.7h8.6c-1.5,3.9-2.8,7.8-4,11.8h.8c1.1-3.6,2.3-7.2,3.7-10.7v10.7h.7V357h25.2a126.5,126.5,0,0,0-10,11.8h.9a127.1,127.1,0,0,1,10-11.6v3.5h.4V357h24.6l.2.3a.8.8,0,0,0,1.3-.2h10.9l-.3.2a.4.4,0,0,0,.1.7,2.4,2.4,0,0,0,1.8,0v6.9a51.9,51.9,0,0,0-11.8,3.2,1.8,1.8,0,0,1-.1.8,51.2,51.2,0,0,1,11.9-3.3h0a26.1,26.1,0,0,0-6.8,3.2h1.3a25.4,25.4,0,0,1,5.4-2.5v2.5h.7v-2.7a25.4,25.4,0,0,1,5.8-.9l.7.7v-1.7h-.6a68.8,68.8,0,0,1-5.4-7.2h5.9v-.7H1019a7.4,7.4,0,0,0,.2-4.1c-.1-.4-.7-.3-.7.1a2.8,2.8,0,0,1-.4,1.3v-8.5Zm0,9.9h0Zm-1,2.4a.4.4,0,0,0-.3-.3h1.3A1.9,1.9,0,0,1,1016.2,357.3Zm1.8,7.3v-7.2h0a67.8,67.8,0,0,0,5,6.8Zm.6-10.6a5.5,5.5,0,0,1-.2,1.7l-.3.6h-.1v-1.5Z" transform="translate(-341.4 -345.1)"/><rect class="cls-2" x="637" y="22" width="0.4" height="1.69"/><polygon class="cls-2" points="619.7 23.7 620.5 23.7 620 23.3 619.7 23.7"/><path class="cls-2" d="M938.7,364.5a27.9,27.9,0,0,1,1.6,4.4h.7a29,29,0,0,0-1.7-4.7C939.1,363.7,938.5,364,938.7,364.5Z" transform="translate(-341.4 -345.1)"/><path class="cls-2" d="M434.1,366.3a.4.4,0,0,0,0,.7A.4.4,0,0,0,434.1,366.3Z" transform="translate(-341.4 -345.1)"/><polygon class="cls-2" points="663.9 23.7 663.9 23.7 663.9 23.7 663.9 23.7"/><path class="cls-2" d="M1004.5,368.8l.2-.5-1.1.5Z" transform="translate(-341.4 -345.1)"/><path class="cls-2" d="M1023.8,354.8l.7-2.4v-2.7l-1.4,4.9A.4.4,0,0,0,1023.8,354.8Z" transform="translate(-341.4 -345.1)"/><rect class="cls-2" x="637" width="0.4" height="5.08"/><rect class="cls-2" x="629.6" width="0.7" height="0.64"/><rect class="cls-2" x="14.2" y="2.5" width="0.4" height="7.05"/><path class="cls-2" d="M1002.5,368.5a.4.4,0,0,0,.6-.4c-.2-.3.8-.4.9-.4s.7.3.6.6l.8-.3a1,1,0,0,0-.3-.6C1004.3,366.6,1001.7,367,1002.5,368.5Z" transform="translate(-341.4 -345.1)"/><path class="cls-2" d="M999.5,365.7c.5,0,.5-.7,0-.7h-2.3c-.5,0-.5.7,0,.7Z" transform="translate(-341.4 -345.1)"/><path class="cls-2" d="M913.1,358.6v-1.4h-.4v1.4Z" transform="translate(-341.4 -345.1)"/><path class="cls-2" d="M418.6,366.8l-.6.3a.4.4,0,0,0-.6.2.4.4,0,0,0,0,.4.4.4,0,0,0,.4.2c.9-.2,2.1-1.1,1.8-2.1a1.2,1.2,0,0,0-.6-.7,1.3,1.3,0,0,0,.3-1.4c-.4-.8-1.3-.1-1.6.4a.4.4,0,0,0,.6.4q0-.3.2-.2l-.3.4-.3.4a1.2,1.2,0,0,0-.5.5.4.4,0,0,0,.6.4h.1l.7.3A1.3,1.3,0,0,1,418.6,366.8Z" transform="translate(-341.4 -345.1)"/><path class="cls-2" d="M1002.1,363.8c-.3-.3-.8.2-.5.5a1.1,1.1,0,0,0,1.8-.3,8.3,8.3,0,0,0,1-3.2h1l-.6,1.6a2.6,2.6,0,0,0-.3,1.6c.3,1,1.7.6,2.3.4s.1-.8-.4-.6-1.5.7-1.2-.4l.3-.7.6-1.7h.7a.4.4,0,0,0-.1-.7c-1.4,0-3.4-.1-4.7.7s0,.9.4.6l1.2-.5C1003.4,361.8,1002.7,364.5,1002.1,363.8Z" transform="translate(-341.4 -345.1)"/><path class="cls-2" d="M443.6,367c.1-.5-.6-.7-.7-.2a9.7,9.7,0,0,0-.1,2h.8A8.1,8.1,0,0,1,443.6,367Z" transform="translate(-341.4 -345.1)"/><path class="cls-2" d="M434.3,368.6c0-.3-.2-.6-.5-.4l-.3.2a.4.4,0,0,0-.1.5h.9Z" transform="translate(-341.4 -345.1)"/><path class="cls-2" d="M425.2,368.8h.8a1.7,1.7,0,0,0,.1-1.6c-.6-1.1-1.8.1-2.1.7a.4.4,0,0,0,.6.4c.3-.6.9,0,.6.5Z" transform="translate(-341.4 -345.1)"/><path class="cls-2" d="M429.7,368.3q.9-1.3,1.4.5h.8c.6-1.3-1.5-2.4-2.6-1.2a1.7,1.7,0,0,0-.4,1.2h1Z" transform="translate(-341.4 -345.1)"/><path class="cls-2" d="M436.4,368.5l-.2.4h.9v-.2C437.1,368.3,436.5,368.2,436.4,368.5Z" transform="translate(-341.4 -345.1)"/><path class="cls-2" d="M930.8,345.1l-.5,1.4c-.2.4.5.6.7.2a7.9,7.9,0,0,1,.8-1.6Z" transform="translate(-341.4 -345.1)"/><path class="cls-2" d="M448.1,345.1h-2l1.6.6C448.1,345.9,448.5,345.3,448.1,345.1Z" transform="translate(-341.4 -345.1)"/><path class="cls-2" d="M936.6,349.8H906.8a.4.4,0,0,0,0,.7h29.9A.4.4,0,0,0,936.6,349.8Z" transform="translate(-341.4 -345.1)"/><path class="cls-2" d="M936.8,367.8a.4.4,0,0,0-.5.2,3.4,3.4,0,0,1-.3.8h.8a.4.4,0,0,0,.2-.7Z" transform="translate(-341.4 -345.1)"/><rect class="cls-2" x="662.4" width="0.4" height="3.56"/><path class="cls-2" d="M342.6,355.6l-.7-2.5v2.7A.4.4,0,0,0,342.6,355.6Z" transform="translate(-341.4 -345.1)"/><path class="cls-2" d="M341.9,365.2a25.3,25.3,0,0,1,12.1,3.6h1.3a26.1,26.1,0,0,0-7.4-3.4l5.1,1v.2h.7l1.9.5v.8h.4v-.7l4.5,1.6h1.8a52,52,0,0,0-5.9-2.2h21.5l-2.7,2.2h1.2l2.5-2.2h0l2.2,2.2h1.2l-2.3-2.2h25V357h9v6.7h.7V357h5.8c-3.3,4.1-6.4,8.3-10.3,11.8h1.1l1.1-1.1v.9h.8l.2-.2.5-.5q.7-.8,1.7,0c-.1.4.6.6.7.2s-1.6-1.7-2.6-1l-.4.4v-.2a.3.3,0,0,0,.1-.6h-.1c2-2.1,3.9-4.4,5.6-6.6l2.5-3.2v5.3h.4V357h21.6v-.7H422.1c4.1-4.9,8.9-9.5,14.8-11.2H435a30.9,30.9,0,0,0-10.4,7.2l-2.9,3.2v-4.9h-.4V356l-.3.3h-6.4V345.1h-.7v11.2h-9V345.1h-.7v11.2H391.9l-2.9-2.1c2.1-3.1,4.2-6.1,6.5-9.1h-.9c-2.1,2.8-4.1,5.7-6.1,8.7l-.8-.6a24.9,24.9,0,0,1,.6-8.1h-.8a26.4,26.4,0,0,0-.5,7.5l-2.5-1.9V346h-.7v4.7l-11,5.5c-2.1-3.6-4-7.3-6.3-10.8,2.4.2,4.9.3,7.4.3a80.7,80.7,0,0,0,10.1-.6H363.7l1.9.2c2.3,3.5,4.3,7.3,6.4,11H353.8V345.1H353v11.2H341.9v.7H353v8.6a52.2,52.2,0,0,0-11.1-1.4Zm45.6-8.2v.3a.4.4,0,0,0,.7-.2h3.3l11.8,8.8H379.7A73.9,73.9,0,0,0,387,357Zm-5.5,5.2c-.9,1.1-2,2.2-3,3.3a39.1,39.1,0,0,1-2.5-3.2c-1.2-1.7-2.3-3.5-3.4-5.3h12.9C384.8,358.8,383.5,360.6,382.1,362.2Zm-6.8-.5a43.5,43.5,0,0,0,3.1,4.2H356v-.5l16.4-8.3C373.3,358.7,374.3,360.2,375.2,361.7Zm-19.6,4.2h-.6l.6-.3Zm48.6-8.8v8.5L392.8,357Zm-13.6-.7h-2.5v-.7h.1l.5-.8Zm-2.7-2-.2.3v-.5Zm-.8,1.1-.6.9H374l9.9-5,3,2.2Q387,354.5,387.2,355.4ZM371,357l-15,7.5v-3.8h-.4v4l-1.9,1V357Z" transform="translate(-341.4 -345.1)"/><path class="cls-2" d="M1000.9,366.3l6.2.2c.5,0,.5-.7,0-.7l-6.2-.2C1000.4,365.6,1000.5,366.3,1000.9,366.3Z" transform="translate(-341.4 -345.1)"/><path class="cls-2" d="M343.4,368.8h1.1l-2.5-2.3v1l1.1,1.1Z" transform="translate(-341.4 -345.1)"/><path class="cls-2" d="M636.5,349.9a1.5,1.5,0,0,0-1-2.3,2.6,2.6,0,0,0-3.1,1.7,1.9,1.9,0,0,0,1.1,2.6,5.9,5.9,0,0,0,3.6,0,.5.5,0,0,0-.3-.9c-.8.2-3.5.7-3.6-.6a1.7,1.7,0,0,1,1.5-1.8c.6-.1,1.5.2,1,1S636.2,350.4,636.5,349.9Z" transform="translate(-341.4 -345.1)"/><path class="cls-2" d="M912.7,362.3h.4v-2.6l-.4.2Z" transform="translate(-341.4 -345.1)"/><path class="cls-2" d="M578,356.7l-2.6.8-2.4.7c0,.3,0,.6,0,.9l5.4-1.6Z" transform="translate(-341.4 -345.1)"/><path class="cls-2" d="M852.3,368.2h.8a.4.4,0,0,0,0-.7h-.7v-.3c0-.5-.7-.5-.7,0v.3h-1.1a.4.4,0,0,0,0,.7h1v.5h.7Z" transform="translate(-341.4 -345.1)"/><path class="cls-2" d="M534.1,368.8h.7c0-.2,0-.5,0-.7a36.2,36.2,0,0,0-8.2-23h-.9a35.5,35.5,0,0,1,8.5,23C534.1,368.4,534.1,368.6,534.1,368.8Z" transform="translate(-341.4 -345.1)"/><path class="cls-2" d="M872.2,366.7a.4.4,0,0,0,0,.5h.4a.4.4,0,0,0,.3-.3.4.4,0,0,0-.3-.4A.4.4,0,0,0,872.2,366.7Z" transform="translate(-341.4 -345.1)"/><path class="cls-2" d="M873.2,368.6a.4.4,0,0,0-.7,0v.2h.7Z" transform="translate(-341.4 -345.1)"/><path class="cls-2" d="M922.6,359.4v.7h-1.4a.4.4,0,0,0,0,.7h1.3v.7c-.1.5.6.6.7.2l.2-.9h1a.4.4,0,0,0,0-.7h-.9v-.5C923.4,359.2,922.7,359,922.6,359.4Z" transform="translate(-341.4 -345.1)"/><path class="cls-2" d="M620.6,362.1a.5.5,0,0,0-.5-.8c-1.1.7-1.7.5-1.9-.5l-.7,1.1C618.1,363.1,619.6,362.7,620.6,362.1Z" transform="translate(-341.4 -345.1)"/><path class="cls-2" d="M565.3,361.5l1.9-.6,3.7-1.1c0-.3,0-.6,0-.9l-5.6,1.7C565.3,360.9,565.3,361.2,565.3,361.5Z" transform="translate(-341.4 -345.1)"/><path class="cls-2" d="M617.8,356.8v.2l-.3,1.3h-.3a2.7,2.7,0,0,0-4.3.5,3.1,3.1,0,0,0,.9,4.2,2,2,0,0,0,2.1-.3,8.4,8.4,0,0,0,1.6-2.1A4,4,0,0,0,617.8,356.8Zm-2.3,4.5c-.6.6-1.4.9-1.9,0s.9-4.1,2.8-2.6h.3l.5.2h0A8.6,8.6,0,0,1,615.5,361.3Z" transform="translate(-341.4 -345.1)"/><path class="cls-2" d="M917.1,357.3c-.1-.5-.8-.3-.7.2s1.2.7,1.7.1l.3-.3a1.4,1.4,0,0,0,.5.6c1,.6,1.8-.2,2.4-1.1s-.4-.8-.6-.4a2.7,2.7,0,0,1-.6.8c-.6.4-.9-.1-1.1-.6s1.1-1.8,1.6-2.7a.4.4,0,0,0-.6-.4l-1.2,2h0l-.3-1.5c-.1-.5-.8-.3-.7.2l.5,2.2H918S917.2,357.7,917.1,357.3Z" transform="translate(-341.4 -345.1)"/><path class="cls-2" d="M912.7,354v2.6h.4V354Z" transform="translate(-341.4 -345.1)"/><path class="cls-2" d="M913.6,358.3l-.5.3v.9c1-.5,1.9-1.1,2-2.1s-.8-.9-1.2-1h-.8v.7C913.9,357,914.6,357.6,913.6,358.3Z" transform="translate(-341.4 -345.1)"/><path class="cls-2" d="M543.6,368.8h2.2l4.2-1.6-.9,1.6h1l.2-.4,33-4.3,1.4,2.9-14,1.8h5.5l8.8-1.2.6,1.2h1l-5.9-12,4.3-1.1c3.4-.8,7-1.5,10.6-2v15.1h9.6l4.6-2,1.1-.5a46.1,46.1,0,0,0,7,2.3v.2h1v-.2l8.9-15.2v15.3h1V352.9l17.2,15.4v.6h1v-.9c8.7-2.7,15.3-7.4,18.2-13.2l.5.2v13.9h1V355.2a42.9,42.9,0,0,0,6.4,1.2,7.4,7.4,0,0,1-1.2,1.5c-.3.3.2.8.5.5l.7-.7a11.4,11.4,0,0,1-.4,2,.4.4,0,0,0,.7.2,12.1,12.1,0,0,0,.4-3.4h0l3.5.2v.2a.3.3,0,0,0,.5.3v9.1h.7v-9.1a.3.3,0,0,0,.4-.3v-.2a43,43,0,0,0,24.3-8l2.5,3.5a52,52,0,0,0-6.8,16.6h.7a51.3,51.3,0,0,1,6.5-15.9l2.6,3.7.6-.4-2.8-3.9,1.9-2.8,7.5,5.6a26.4,26.4,0,0,0-15.8,13.7h.8a25.6,25.6,0,0,1,15.7-13.2l8.1,6.1.4,1.4a29.9,29.9,0,0,0-1.8,2.9l.3.2a29.5,29.5,0,0,1,1.6-2.7,26.2,26.2,0,0,0,2.7,5.3h.9a25.5,25.5,0,0,1-3.1-6h.1l8.3,6.2h1.2l-10-7.5a25.4,25.4,0,0,1-1-6.6,25.4,25.4,0,0,1,7.6,1.4,30.2,30.2,0,0,0-3.7,3.2l.3.2a29.9,29.9,0,0,1,3.8-3.3,25.7,25.7,0,0,1,14.2,12.7h.8a26.3,26.3,0,0,0-23.1-14.9,25.4,25.4,0,0,1,1.7-8.8h-.8a26.1,26.1,0,0,0-1.7,8.8,26.2,26.2,0,0,0-6.9.9l-8-6q1.5-2,3.2-3.8h-1l-2.8,3.4-2.5-1.8,1.7-1.5h-1.1l-1.2,1.1-1.4-1.1h-1.2l2.1,1.5-1.4,1.1-1.9-2.6h-.9l2.2,3A42.3,42.3,0,0,1,679,356a40.8,40.8,0,0,1,1.1-10.9h-.8q-.4,1.7-.6,3.4v-3.4h-.7v4.6a42.5,42.5,0,0,0-.8-4.6h-.8a40.8,40.8,0,0,1,1.1,10.9,42.4,42.4,0,0,1-10.7-1.6v-6.5h0a13.7,13.7,0,0,0-.4-2.8h-1a12.8,12.8,0,0,1,.5,3.4,13.1,13.1,0,0,1-1.1,5.3,42.4,42.4,0,0,1-11-5.6l2.2-3H655l-1.9,2.6-3.2-2.6h-1.1a43.6,43.6,0,0,0,3.9,3.2l-5.6,7.8.6.4,5.6-7.8a43.2,43.2,0,0,0,11.1,5.7c-2.8,5.6-9.4,10.2-18,12.7l-17.3-15.5h0l-.8-.5-9.7,16.6a45.9,45.9,0,0,1-6.3-2,14.6,14.6,0,0,0,5.2-3.9V361a5.8,5.8,0,0,1-1.4,1.5,16.1,16.1,0,0,1-4.4,2.9l-3.5-1.7.3-.3a32.4,32.4,0,0,0,4.2-5.9,9.3,9.3,0,0,0,1-3.5c2,.5,3.7,1.4,4.4,2.8l.4-.2h.1a.5.5,0,0,1,.5.5,5.7,5.7,0,0,1-.5,2.1,6.9,6.9,0,0,0-.1.9,3.8,3.8,0,0,0,.1.6,8.6,8.6,0,0,0,.7-1.5c.8-2.4-.7-4.3-2.8-5.3a13,13,0,0,0-2.6-.9c-.1-2.8-1.4-5.5-3.3-7.9h-5.1l2.2,2.8c1.5,1.8,1.9,3.3,1.7,4.6H607a66.2,66.2,0,0,0-9.4.4,12.7,12.7,0,0,1-.3-7.6h-1a13.6,13.6,0,0,0-.4,3.4c0,.1,0,.2,0,.3h0v4.2h-1.1a106.4,106.4,0,0,0-14.3,2.9l-5.3-10.9h-1l7.2,14.8-18,2.4c0-.3-.1-.7-.1-1l-4.2,1.5-1.2.5a8,8,0,0,0,0,1.1l2.7-1,21.2-2.8,1.4,2.8-32.2,4.2.5-.8,1.3-.5,3.2-1.2c0-.4,0-.8,0-1.1l-3.7,1.4,11.8-20.3h-1l-12.1,20.8Zm180.3-14.2a26.2,26.2,0,0,0,.8,5.9l-6.9-5.2A25.5,25.5,0,0,1,723.9,354.6Zm-18.4-7.6,2.6,1.9-1.8,2.6-2.4-3.3Zm-39.6,6.4v.6h-.2Zm-69.1.1h0a19.6,19.6,0,0,0,5.8,7.7l-5.8,6.7Zm13.4,12.4-5.5,2.2-.8.4,3.4-4Zm-1.4-12.7a15.7,15.7,0,0,1-3.1,4.4l-2.5,2.9a18.7,18.7,0,0,1-5.4-7.1A54,54,0,0,1,608.8,353.3Z" transform="translate(-341.4 -345.1)"/><path class="cls-2" d="M861,345.3c.2-.2.2-.1.1.2l-.7.9c-.3.3.2.8.5.5s.6.4.3.7l-.5.3a2.1,2.1,0,0,1-1.4-.1c-.4-.2-.6.5-.2.7s2.5.2,3-1a1,1,0,0,0-.6-1.3,2,2,0,0,0,.5-1.1h-1.7A.4.4,0,0,0,861,345.3Z" transform="translate(-341.4 -345.1)"/><path class="cls-2" d="M863.2,367.6l-7.2.3c-.5,0-.5.7,0,.7l7.2-.3C863.6,368.3,863.6,367.5,863.2,367.6Z" transform="translate(-341.4 -345.1)"/><path class="cls-2" d="M456.2,365.6a27.3,27.3,0,0,0-2.4,3.2h.9L456,367l-.2,1.8h.7l.3-3A.4.4,0,0,0,456.2,365.6Z" transform="translate(-341.4 -345.1)"/><path class="cls-2" d="M900,350.3h-5.8a.4.4,0,0,0,0,.7H900A.4.4,0,0,0,900,350.3Z" transform="translate(-341.4 -345.1)"/><path class="cls-2" d="M912.7,364.8h.4v-1.9h-.4Z" transform="translate(-341.4 -345.1)"/><path class="cls-2" d="M902.7,366.5c.3-.4-.3-.7-.6-.4l-1.2,1.6c0-.4,0-.9,0-1.3a.4.4,0,0,0-.7,0,13.1,13.1,0,0,0,.1,2.2h.8Z" transform="translate(-341.4 -345.1)"/><path class="cls-2" d="M914.8,361.9c.4-.3,0-.9-.4-.6l-1.4.8v.7A6.5,6.5,0,0,0,914.8,361.9Z" transform="translate(-341.4 -345.1)"/><path class="cls-2" d="M879.3,346.4a3.6,3.6,0,0,0,1.8-.4l-.5,1.4c-.1.4.6.6.7.2l.8-2.4h-1a2.8,2.8,0,0,1-1.5.6v-.6h-.7v1A.4.4,0,0,0,879.3,346.4Z" transform="translate(-341.4 -345.1)"/><path class="cls-2" d="M482.3,368.8h4.8v-.3h-4.8Z" transform="translate(-341.4 -345.1)"/><path class="cls-2" d="M525.8,368.8l-1.9-23.7h-.7l1.9,23.7Z" transform="translate(-341.4 -345.1)"/><path class="cls-2" d="M860,345.1h-2.5l.2.2c.7.8,1.6.4,2.3-.2Z" transform="translate(-341.4 -345.1)"/><polygon class="cls-2" points="136.6 23.7 136.6 23.7 134.1 23.7 136.6 23.7"/><path class="cls-2" d="M896.8,355.4l-.3.4a5.3,5.3,0,0,0-4.5,1.5.4.4,0,0,0-.1.4c.9,2.6,3.3.6,4.7-1.1a2.3,2.3,0,0,1,1.5,1.4c.2.4.9.2.7-.2a2.9,2.9,0,0,0-1.7-1.8l.6-1c.4-.8,1.2-2.6,0-3.2s-2.1.6-2.3,1.8.6.6.7.2v-.4q1.8-.4,1.2.6A7.8,7.8,0,0,1,896.8,355.4Zm-2.4,2.5-.6.2q-1.8-.3-.6-.9a4.1,4.1,0,0,1,1.6-.7H896A7.8,7.8,0,0,1,894.4,357.8Z" transform="translate(-341.4 -345.1)"/><path class="cls-2" d="M910.9,361.4a2.5,2.5,0,0,1-.1-1.3h.3l1.6-.6v-.9l-1.8.7a5,5,0,0,1,.5-1.1,2.8,2.8,0,0,1,1.3-1.1v-.8a3.3,3.3,0,0,0-1.2.6c-1.2,1-2.1,3.3-1.2,4.8a2,2,0,0,0,2.3,1v-.7A1.3,1.3,0,0,1,910.9,361.4Z" transform="translate(-341.4 -345.1)"/><path class="cls-2" d="M891,367.7c-1.1-.9-2.3.1-2.9,1.1h.9a1.7,1.7,0,0,1,1.5,0h1.2A2.1,2.1,0,0,0,891,367.7Z" transform="translate(-341.4 -345.1)"/><path class="cls-2" d="M832.9,368.8h2C834.4,368.1,833.5,368.4,832.9,368.8Z" transform="translate(-341.4 -345.1)"/><path class="cls-2" d="M841,368.8v-.2c.4-.9.7-1.9,1-2.8s-.5-.6-.7-.2l-.7,1.9a21.8,21.8,0,0,1-.7-2.4c-.1-.5-.8-.3-.7.2a18.6,18.6,0,0,0,.9,3.3v.2Z" transform="translate(-341.4 -345.1)"/><path class="cls-2" d="M675.5,367.1l-.2.3a4.8,4.8,0,0,0-2.8.8,1.1,1.1,0,0,0-.5.7h1.4l-.3-.2a4.7,4.7,0,0,1,1.3-.4h.3l-.4.5-.2.2h1l.4-.5.6.5h1.1l-.9-1-.3-.2a6.5,6.5,0,0,0,1.1-3.4,1.1,1.1,0,0,0-1.2-1c-.9,0-1.3,1-1.5,1.7s.6.6.7.2.5-.7,1.3-.4l-.2.7A9.9,9.9,0,0,1,675.5,367.1Z" transform="translate(-341.4 -345.1)"/><path class="cls-2" d="M838.5,347.9c0,.4,0,.9,0,1.3a.4.4,0,0,0,.7,0c0-.2.1-1.4,0-2.2a3.3,3.3,0,0,0,.4-1,.4.4,0,0,0-.3-.4.7.7,0,0,0-.9.7c0,.2,0,.4,0,.6l-.4.4C837.9,347.5,838.2,347.9,838.5,347.9Z" transform="translate(-341.4 -345.1)"/><path class="cls-2" d="M847.5,345.4a.4.4,0,0,0,.2-.3h-2.2v.2C846,346.1,846.9,345.8,847.5,345.4Z" transform="translate(-341.4 -345.1)"/><path class="cls-2" d="M813.8,357.7a7.9,7.9,0,0,1,2.2-.6c.5-.1.5-.8,0-.7h-.6a16.9,16.9,0,0,1-.3-2.9c0-.5-.7-.5-.7,0a1.6,1.6,0,0,1-.8,1.5.4.4,0,0,0,.4.6l.6-.5.2,1.1-1.3.7A.4.4,0,0,0,813.8,357.7Z" transform="translate(-341.4 -345.1)"/><path class="cls-2" d="M647.8,356.5c-.5,1.9-.4,3.9-.9,5.7l-.2.7h0c0,.4.4.6.7.4a.5.5,0,0,0,.4.3,4.6,4.6,0,0,0,3.2-.8,2,2,0,0,0,.3-2.9c-.9-1-2.1-.6-3.1.3a30.2,30.2,0,0,1,.5-3.6A.5.5,0,0,0,647.8,356.5Zm2.6,4c.4.2.4,1,.3,1.3a1.8,1.8,0,0,1-1.1.7,4.3,4.3,0,0,1-1.8.2h0v-.4C648.4,361.4,649.5,360.2,650.4,360.6Z" transform="translate(-341.4 -345.1)"/><path class="cls-2" d="M843,368.8h0Z" transform="translate(-341.4 -345.1)"/><path class="cls-2" d="M722.3,368.8h.4l.2-.6h-.3Z" transform="translate(-341.4 -345.1)"/><path class="cls-2" d="M810.2,356.7c-.3.7-.8-1-.8-1a10.8,10.8,0,0,1-.3-2.6.4.4,0,0,0-.7,0c0,1,0,4.7,1.5,4.7s.9-.5,1.1-1a13.8,13.8,0,0,0,1.1-3.6c.1-1.2-1.1-3.3-2.6-2.6a.9.9,0,0,0-.5,1.3c.2.6.9.7,1.5.7s.5-.7,0-.7-.3-.9.6,0a2.1,2.1,0,0,1,.3,1.3,7,7,0,0,1-.7,2.5Z" transform="translate(-341.4 -345.1)"/><path class="cls-2" d="M741.1,351.8v-.4a29.9,29.9,0,0,0-5.6,2.4l.2.3A29.5,29.5,0,0,1,741.1,351.8Z" transform="translate(-341.4 -345.1)"/><path class="cls-2" d="M689.1,366.4a3.5,3.5,0,0,1-1.4,1.3.4.4,0,0,0,.3.7,2.8,2.8,0,0,1,2.2.2c.4.2.8-.4.4-.6a3.7,3.7,0,0,0-1.4-.4,3,3,0,0,0,1.1-2.3.8.8,0,0,0-1.1-.6,1.4,1.4,0,0,0-.8,1.4c0,.5.7.5.7,0a.7.7,0,0,1,.2-.6q.4-.2.2.2A3.1,3.1,0,0,1,689.1,366.4Z" transform="translate(-341.4 -345.1)"/><path class="cls-2" d="M832.1,347c.8.2,1.7-.7,2.2-1.2l.6-.6a2.3,2.3,0,0,0,.1.8.9.9,0,0,0,1.7.1c.2-.4-.4-.8-.6-.4a.9.9,0,0,1-.5-.7h-1.6l-.8.7c-1.2,1-1.6-.1-1.9-.7h-.8v.3C830.9,346.1,831.3,346.8,832.1,347Z" transform="translate(-341.4 -345.1)"/><path class="cls-2" d="M813.7,349.4l2.1-1.4a.4.4,0,0,0-.2-.7l-2.9-.2c-.4,0-.5.6-.1.7h.6l-8.6,2.1c-.5.1-.3.8.2.7l8.8-2.2-.3.2C812.9,349.1,813.3,349.7,813.7,349.4Z" transform="translate(-341.4 -345.1)"/><path class="cls-2" d="M749.8,368.8h.7V350.4l3.9.3v-.4l-4-.3v-5h-.7v5a30,30,0,0,0-5,.5v.4a29.7,29.7,0,0,1,5-.5Z" transform="translate(-341.4 -345.1)"/><path class="cls-2" d="M828.8,363.5v-2.7q1.7-.7,1.4.5a4.7,4.7,0,0,1-.5,1.9c-.2.4.4.8.6.4a5,5,0,0,0,.2-4.4,1.2,1.2,0,0,0-2.1-.1,4.1,4.1,0,0,0-.3,2.4l.2,4,.2,3.3h.7C829,367,828.9,365.3,828.8,363.5Z" transform="translate(-341.4 -345.1)"/><path class="cls-2" d="M844.8,345.1h-1c-.6.5-1.3,1-1.5.1h-.7c.2,1.3,1.1,1.8,2.2,1Z" transform="translate(-341.4 -345.1)"/><path class="cls-2" d="M851.2,363.2a1,1,0,0,0-.9-.9,1.5,1.5,0,0,0,0-1c-.4-.9-1.4-.4-1.8.1s.2.9.5.5a.7.7,0,0,1,.7-.3,1,1,0,0,1,0,.5,1.9,1.9,0,0,1-.3.6l-.3.4c-.2.3.3.8.6.4l.2-.3h.1l.5.3-.3.4a1.1,1.1,0,0,1-.8.3.3.3,0,0,0-.5-.1h-.1a.4.4,0,0,0,.2.6A1.8,1.8,0,0,0,851.2,363.2Z" transform="translate(-341.4 -345.1)"/><path class="cls-2" d="M855.9,345.5l.6-.4h-2.6A1.5,1.5,0,0,0,855.9,345.5Z" transform="translate(-341.4 -345.1)"/><path class="cls-2" d="M847.3,365.3a4.7,4.7,0,0,1-1,2.3q-1.7.7-1.3-1.1a6.9,6.9,0,0,1,.1-1.3c.1-.5-.7-.5-.7,0s-.4,3,.6,3.5h1.1l.6-.5v.5h.8c.2-1.2.4-2.4.5-3.3S847.4,364.8,847.3,365.3Z" transform="translate(-341.4 -345.1)"/><path class="cls-2" d="M677.9,368.8h0Z" transform="translate(-341.4 -345.1)"/><path class="cls-2" d="M926.6,363.8h3.2c.5,0,.5-.7,0-.7h-1.3a13.3,13.3,0,0,0,.3-2,8.3,8.3,0,0,1,.3-1.9l.5-.5a.4.4,0,0,0-.4-.6,1.5,1.5,0,0,0-.7.7l-2,2.3c-.3.4.2.9.5.5l1.1-1.3v.6c-.1.7-.2,1.4-.3,2.1s-1,.1-1.4.3h-.1A.4.4,0,0,0,926.6,363.8Z" transform="translate(-341.4 -345.1)"/><path class="cls-2" d="M775.7,354.3a25.4,25.4,0,0,1-1.3,8.1l-1.3-1.7-.2.3,1.4,1.8a25.5,25.5,0,0,1-3.1,6.1h.9a26.2,26.2,0,0,0,2.7-5.3,30.1,30.1,0,0,1,1.9,3.2l.3-.2a30.4,30.4,0,0,0-2-3.4,26.2,26.2,0,0,0-.1-18h-.8A25.4,25.4,0,0,1,775.7,354.3Z" transform="translate(-341.4 -345.1)"/><path class="cls-2" d="M785.5,368.8h2.4l11.7-3.6q.5,1.8,1,3.6h.7q-.4-1.9-1-3.8l31.9-9.9-.9,1.1c-.3.4.4.8.6.4a8,8,0,0,1,1.9-2,.4.4,0,0,0-.2-.7h-3.8a.4.4,0,0,0,0,.7h1.5L800,364.3A52.4,52.4,0,0,0,789,345.1h-1a51.7,51.7,0,0,1,11.3,19.4Z" transform="translate(-341.4 -345.1)"/><path class="cls-2" d="M762.9,352.9a29.8,29.8,0,0,0-5.6-2v.4a29.5,29.5,0,0,1,5.5,2Z" transform="translate(-341.4 -345.1)"/><path class="cls-2" d="M833.7,360a6.9,6.9,0,0,1-1.5,3c-.3.4.2.9.5.5l.8-1.1-.2,2.3c0,.5.7.5.7,0l.4-4.7C834.4,359.7,833.7,359.7,833.7,360Z" transform="translate(-341.4 -345.1)"/><path class="cls-2" d="M683.8,366.8l-.6,2h.8l.6-1.8A.4.4,0,0,0,683.8,366.8Z" transform="translate(-341.4 -345.1)"/><path class="cls-2" d="M830.9,367.8l5.9-.3c.5,0,.5-.7,0-.7l-5.9.3C830.4,367.1,830.4,367.8,830.9,367.8Z" transform="translate(-341.4 -345.1)"/><path class="cls-2" d="M759.7,368.8h4.7l-2.3-.2Z" transform="translate(-341.4 -345.1)"/><path class="cls-2" d="M695.1,367.2l-.7,1.6h.8l.6-1.4C695.9,367.1,695.2,366.8,695.1,367.2Z" transform="translate(-341.4 -345.1)"/><path class="cls-2" d="M765.6,354.4l-.2.3a29.9,29.9,0,0,1,5.5,4.2l.3-.2A30.3,30.3,0,0,0,765.6,354.4Z" transform="translate(-341.4 -345.1)"/><rect class="cls-3" width="4.1" height="23.74"/></svg>